<svg width="537" height="435" viewBox="0 0 537 435" fill="none" xmlns="http://www.w3.org/2000/svg">
<path d="M372.856 375.346C364.201 384.449 356.011 390.319 349.541 394.958C273.483 449.476 183.485 433.584 164.359 429.703C136.115 423.972 81.5185 412.894 42.0476 366.522C-17.6701 296.363 -8.37176 185.833 37.9504 112.869C46.423 99.5228 91.1798 25.448 182.145 13.5691C237.197 6.38009 301.371 20.879 347.842 59.7763C445.39 141.422 438.445 306.363 372.856 375.346Z" fill="url(#paint0_linear_113_405)"/>
<path d="M448.632 74.2687C448.434 71.8645 445.135 71.3248 444.188 73.5439C435.026 94.9972 409.236 150.498 377.185 177.559C324.999 221.62 284.003 298.863 307.735 344.728C307.737 344.727 470.232 336.21 448.632 74.2687Z" fill="#65D1EA"/>
<path opacity="0.43" d="M440.074 105.47C439.922 106.191 439.74 106.773 439.572 107.408L439.035 109.269L437.919 112.975C437.158 115.44 436.36 117.893 435.562 120.346C433.947 125.246 432.272 130.124 430.553 134.988C427.095 144.709 423.375 154.335 419.51 163.904C415.658 173.478 411.538 182.946 407.22 192.321C402.893 201.692 398.433 211.006 393.668 220.168C384.176 238.509 373.679 256.351 361.961 273.38C356.014 281.83 349.843 290.132 343.205 298.056C336.511 305.931 329.479 313.524 321.925 320.574C321.761 320.726 321.504 320.718 321.35 320.553C321.201 320.393 321.206 320.145 321.358 319.99L321.362 319.987C328.611 312.678 335.453 304.993 341.903 296.99C348.377 289.003 354.38 280.647 360.158 272.148C365.934 263.644 371.363 254.908 376.593 246.055C381.82 237.199 386.679 228.131 391.486 219.038C401.023 200.806 409.583 182.074 417.62 163.124C421.618 153.641 425.427 144.075 429.064 134.443C430.891 129.631 432.673 124.801 434.395 119.95L436.922 112.654L438.147 108.995L438.738 107.16C438.922 106.556 439.13 105.91 439.27 105.374L439.293 105.286C439.349 105.071 439.569 104.942 439.784 104.998C439.99 105.052 440.118 105.262 440.074 105.47Z" fill="white"/>
<path d="M362.895 6.08813C362.056 3.93774 358.885 4.34184 358.621 6.63443C356.072 28.8038 347.567 86.7257 325.557 120.277C289.72 174.906 273.199 256.911 307.483 292.493C307.483 292.493 454.191 240.374 362.895 6.08813Z" fill="#65D1EA"/>
<path opacity="0.43" d="M363.563 37.0303C363.621 37.7338 363.613 38.3168 363.631 38.9449L363.645 40.7977L363.634 44.5001C363.61 46.9686 363.548 49.4344 363.485 51.9016C363.343 56.8345 363.139 61.7645 362.89 66.6931C362.373 76.5497 361.589 86.3893 360.656 96.2162C359.738 106.046 358.544 115.849 357.142 125.624C355.731 135.396 354.184 145.154 352.315 154.853C348.616 174.258 343.854 193.481 337.755 212.29C334.606 221.66 331.21 230.955 327.283 240.03C323.29 249.075 318.913 257.955 313.905 266.476C313.794 266.665 313.552 266.728 313.363 266.617C313.179 266.509 313.115 266.275 313.213 266.089L313.216 266.083C317.866 257.404 322.042 248.491 325.771 239.394C329.528 230.306 332.751 221.006 335.729 211.639C338.702 202.266 341.298 192.777 343.678 183.234C346.056 173.689 348.035 164.05 349.962 154.403C353.734 135.087 356.472 115.577 358.675 96.0126C359.755 86.2263 360.639 76.4173 361.347 66.5961C361.709 61.686 362.028 56.772 362.283 51.8546L362.611 44.4772L362.736 40.7874L362.779 38.944C362.782 38.3407 362.797 37.6903 362.779 37.1628L362.775 37.0739C362.768 36.8568 362.937 36.6758 363.154 36.6681C363.368 36.6626 363.546 36.8232 363.563 37.0303Z" fill="white"/>
<path d="M203 393.493C296.336 393.493 372 316.546 372 221.628C372 126.71 296.336 49.764 203 49.764C109.664 49.764 34 126.71 34 221.628C34 316.546 109.664 393.493 203 393.493Z" fill="#1AAAE2"/>
<path d="M214.12 389.351C307.352 389.351 382.931 313.831 382.931 220.673C382.931 127.515 307.352 51.9947 214.12 51.9947C120.888 51.9947 45.3081 127.515 45.3081 220.673C45.3081 313.831 120.888 389.351 214.12 389.351Z" fill="white"/>
<path d="M214.122 364.635C293.692 364.635 358.197 300.181 358.197 220.674C358.197 141.166 293.692 76.7125 214.122 76.7125C134.552 76.7125 70.0471 141.166 70.0471 220.674C70.0471 300.181 134.552 364.635 214.122 364.635Z" fill="#1AAAE2"/>
<path d="M214.122 371.846C130.7 371.846 62.8306 304.03 62.8306 220.674C62.8306 137.317 130.7 69.5016 214.122 69.5016C297.544 69.5016 365.413 137.317 365.413 220.674C365.413 304.03 297.543 371.846 214.122 371.846ZM214.122 76.7108C134.679 76.7108 70.047 141.292 70.047 220.672C70.047 300.054 134.679 364.633 214.122 364.633C293.565 364.633 358.197 300.053 358.197 220.672C358.195 141.292 293.565 76.7108 214.122 76.7108Z" fill="white"/>
<path d="M276.227 282.732C310.529 248.458 310.529 192.889 276.227 158.614C241.926 124.34 186.313 124.34 152.012 158.614C117.71 192.889 117.71 248.458 152.012 282.732C186.313 317.006 241.926 317.006 276.227 282.732Z" fill="#1AAAE2"/>
<path d="M214.122 315.65C161.711 315.65 119.071 273.043 119.071 220.672C119.071 168.301 161.711 125.696 214.122 125.696C266.533 125.696 309.173 168.301 309.173 220.672C309.173 273.043 266.533 315.65 214.122 315.65ZM214.122 140.118C169.668 140.118 133.503 176.255 133.503 220.672C133.503 265.09 169.668 301.228 214.122 301.228C258.576 301.228 294.742 265.09 294.742 220.672C294.742 176.255 258.575 140.118 214.122 140.118Z" fill="white"/>
<path d="M238.183 244.717C251.473 231.438 251.473 209.908 238.183 196.629C224.893 183.35 203.346 183.35 190.057 196.629C176.767 209.908 176.767 231.438 190.057 244.717C203.346 257.996 224.893 257.996 238.183 244.717Z" fill="#1AAAE2"/>
<path d="M214.122 261.887C191.379 261.887 172.876 243.398 172.876 220.672C172.876 197.946 191.379 179.457 214.122 179.457C236.865 179.457 255.369 197.946 255.369 220.672C255.369 243.398 236.865 261.887 214.122 261.887ZM214.122 193.88C199.336 193.88 187.308 205.899 187.308 220.673C187.308 235.448 199.336 247.466 214.122 247.466C228.908 247.466 240.936 235.448 240.936 220.673C240.936 205.899 228.906 193.88 214.122 193.88Z" fill="white"/>
<path d="M522.415 271.374L529.624 285.911L499.056 278.879C489.042 276.574 480.588 269.904 476.024 260.702L522.415 271.374Z" fill="#1AAAE2"/>
<path d="M523.42 267.006L536.265 257.083L505.697 250.051C495.681 247.746 485.161 250.052 477.03 256.334L523.42 267.006Z" fill="#1AAAE2"/>
<path d="M325.691 220.758L324.485 225.994L522.887 271.624L524.093 266.388L325.691 220.758Z" fill="#009BD7"/>
<path d="M336.912 217.829C339.918 218.52 336.655 232.68 333.649 231.989L288.005 215.575C286.318 214.968 286.898 212.455 288.68 212.646L336.912 217.829Z" fill="#009BD7"/>
<path d="M383.343 422.441C383.343 422.441 385.779 425.949 385.902 430.878C385.93 432.039 384.99 432.998 383.829 433.039L365.074 433.692C364.196 433.723 363.801 432.608 364.502 432.078C367.963 429.464 374.777 424.569 379.759 422.565L383.343 422.441Z" fill="url(#paint1_linear_113_405)"/>
<path d="M383.809 416.457L383.329 423.661C383.276 424.468 382.581 425.1 381.775 425.032C381.286 424.991 380.697 424.866 380.048 424.574C379.43 424.297 379.048 423.66 379.074 422.984L379.4 414.292L383.809 416.457Z" fill="url(#paint2_linear_113_405)"/>
<path d="M487.828 391.009C487.828 391.009 491.739 389.284 496.606 390.1C497.752 390.292 498.515 391.396 498.335 392.543L495.419 411.066C495.282 411.933 494.11 412.11 493.724 411.322C491.812 407.429 488.296 399.817 487.271 394.549L487.828 391.009Z" fill="url(#paint3_linear_113_405)"/>
<path d="M482.037 389.416L489.024 391.254C489.806 391.46 490.296 392.262 490.077 393.039C489.944 393.511 489.709 394.065 489.299 394.648C488.909 395.201 488.21 395.454 487.551 395.301L479.072 393.331L482.037 389.416Z" fill="url(#paint4_linear_113_405)"/>
<path d="M386.341 243.665C386.341 243.665 385.712 242.214 385.814 241.354C385.915 240.496 385.939 237.815 384.33 236.684C384.33 236.684 383.458 236.726 383.441 237.703C382.416 236.604 382.364 235.655 381.305 236.33C380.246 237.003 376.261 239.419 378.25 241.012C380.24 242.605 383.368 245.637 383.368 245.637L386.341 243.665Z" fill="url(#paint5_linear_113_405)"/>
<path d="M420.872 359.563C420.872 359.563 424.422 387.869 434.586 388.95C444.749 390.03 483.675 395.648 483.675 395.648L484.756 389.814C484.756 389.814 462.266 376.2 448.859 376.416C442.155 366.476 443.791 339.013 443.791 339.013L420.872 359.563Z" fill="#0090BC"/>
<path d="M462.684 260.738C461.487 292.297 444.92 295.084 444.92 295.084V335.447H421.56C421.56 335.447 410.232 307.884 410.526 298.671C393.678 291.553 385.15 250.85 383.37 245.637C384.2 245.006 384.646 245.031 386.341 243.664C409.304 280.183 414.907 285.796 414.907 285.796H427.881C452.813 283.558 458.947 259.877 458.947 259.877L462.684 260.738Z" fill="#1AAAE2"/>
<path d="M444.19 335.362C444.19 335.362 446.047 355.139 407.059 370.553C397.544 388.272 385.064 421.303 385.064 421.303H376.847C376.847 421.303 382.469 371.419 392.417 361.479C402.365 351.539 413.217 340.353 421.558 335.456C440.856 333.439 444.19 335.362 444.19 335.362Z" fill="#0090BC"/>
<path d="M427.568 271.085L431.868 286.218C431.868 286.218 424.52 290.164 419.087 289.097L417.594 275.757L427.568 271.085Z" fill="url(#paint6_linear_113_405)"/>
<path d="M418.659 260.097C418.501 260.274 412.652 274.807 412.652 274.807L421.028 277.968L428.62 265.017C428.62 265.015 421.298 257.133 418.659 260.097Z" fill="url(#paint7_linear_113_405)"/>
<path d="M425.14 266.72L421.678 273.851C421.634 273.942 421.578 274.025 421.512 274.102C421.098 274.568 419.56 276.065 418.123 274.399C416.819 272.886 415.606 271.526 414.386 271.166C413.838 271.004 413.258 271.284 413.044 271.813C412.513 273.134 411.371 276.131 410.778 278.888C410.657 279.448 410.99 280.003 411.538 280.171C413.185 280.681 416.692 281.656 419.696 281.784C420.103 281.8 420.487 281.599 420.695 281.249C421.719 279.549 424.85 274.39 425.945 273.087C426.973 271.865 429.123 272.144 430.017 272.326C430.31 272.385 430.612 272.323 430.857 272.152C431.725 271.548 433.43 269.951 431.552 267.597C431.16 267.103 431.252 266.391 431.756 266.014C432.762 265.262 433.903 263.858 432.601 261.809C431.278 259.728 429.213 259.802 427.916 260.116C427.393 260.244 426.867 259.968 426.646 259.478C426.52 259.198 426.271 258.97 425.795 258.957C425.155 258.941 424.681 258.351 424.764 257.715C424.925 256.496 424.66 254.901 422.612 254.001C418.978 252.405 416.218 255.777 415.679 258.464C415.14 261.151 419.18 262.658 421.643 262.75C423.518 262.82 424.69 264.816 425.144 265.769C425.289 266.07 425.285 266.419 425.14 266.72Z" fill="url(#paint8_linear_113_405)"/>
<path d="M424.659 275.67C424.659 275.67 425.799 271.028 427.786 271.019C429.772 271.01 431.5 272.834 429.251 275.258C426.455 278.273 424.659 275.67 424.659 275.67Z" fill="url(#paint9_linear_113_405)"/>
<path d="M463.467 252.412C463.467 252.412 458.422 250.179 459.07 253.925C459.72 257.671 458.364 260.408 461.24 260.696C464.115 260.983 464.442 255.001 463.467 252.412Z" fill="url(#paint10_linear_113_405)"/>
<defs>
<linearGradient id="paint0_linear_113_405" x1="476.52" y1="559.719" x2="100.155" y2="91.8375" gradientUnits="userSpaceOnUse">
<stop stop-color="#DAE3FE"/>
<stop offset="1" stop-color="#E9EFFD"/>
</linearGradient>
<linearGradient id="paint1_linear_113_405" x1="385.789" y1="427.663" x2="363.988" y2="428.424" gradientUnits="userSpaceOnUse">
<stop stop-color="#09005D"/>
<stop offset="1" stop-color="#1A0F91"/>
</linearGradient>
<linearGradient id="paint2_linear_113_405" x1="384.184" y1="419.184" x2="378.629" y2="419.949" gradientUnits="userSpaceOnUse">
<stop stop-color="#FEBBBA"/>
<stop offset="1" stop-color="#FF928E"/>
</linearGradient>
<linearGradient id="paint3_linear_113_405" x1="493.423" y1="389.599" x2="490.04" y2="411.134" gradientUnits="userSpaceOnUse">
<stop stop-color="#09005D"/>
<stop offset="1" stop-color="#1A0F91"/>
</linearGradient>
<linearGradient id="paint4_linear_113_405" x1="484.788" y1="389.565" x2="484.485" y2="395.161" gradientUnits="userSpaceOnUse">
<stop stop-color="#FEBBBA"/>
<stop offset="1" stop-color="#FF928E"/>
</linearGradient>
<linearGradient id="paint5_linear_113_405" x1="377.898" y1="239.204" x2="386.84" y2="242.149" gradientUnits="userSpaceOnUse">
<stop stop-color="#FEBBBA"/>
<stop offset="1" stop-color="#FF928E"/>
</linearGradient>
<linearGradient id="paint6_linear_113_405" x1="410.026" y1="247.406" x2="442.044" y2="326.214" gradientUnits="userSpaceOnUse">
<stop stop-color="#FEBBBA"/>
<stop offset="1" stop-color="#FF928E"/>
</linearGradient>
<linearGradient id="paint7_linear_113_405" x1="421.227" y1="262.517" x2="418.857" y2="292.223" gradientUnits="userSpaceOnUse">
<stop stop-color="#FEBBBA"/>
<stop offset="1" stop-color="#FF928E"/>
</linearGradient>
<linearGradient id="paint8_linear_113_405" x1="427.676" y1="275.923" x2="411.636" y2="261.644" gradientUnits="userSpaceOnUse">
<stop stop-color="#09005D"/>
<stop offset="1" stop-color="#1A0F91"/>
</linearGradient>
<linearGradient id="paint9_linear_113_405" x1="428.386" y1="294.076" x2="427.445" y2="273.447" gradientUnits="userSpaceOnUse">
<stop stop-color="#FEBBBA"/>
<stop offset="1" stop-color="#FF928E"/>
</linearGradient>
<linearGradient id="paint10_linear_113_405" x1="458.479" y1="255.678" x2="463.97" y2="256.799" gradientUnits="userSpaceOnUse">
<stop stop-color="#FEBBBA"/>
<stop offset="1" stop-color="#FF928E"/>
</linearGradient>
</defs>
</svg>
