<svg width="539" height="371" viewBox="0 0 539 371" fill="none" xmlns="http://www.w3.org/2000/svg">
<path d="M22.0498 367.745L526.85 369.074C519.782 276.329 577.718 113.409 486.012 74.4078C352.492 -2.94503 376.118 -35.2084 255.957 54.8681C222.665 79.825 182.059 107.868 153.247 106.456C104.972 104.095 57.6973 133.415 20.129 170.945C-21.6989 212.732 13.2364 314.447 22.0498 367.745Z" fill="#DCECFD"/>
<path d="M309.833 171.006H202.079C205.348 164.199 208.677 163.43 215.243 161.695C216.603 160.787 217 159.016 217.488 157.455C225.648 134.816 256.98 139.544 269.022 156.676C273.789 154.383 279.808 152.186 284 155.412C286.536 157.364 287.801 160.994 290.855 161.948C293.024 162.625 295.327 161.676 297.591 161.503C301.939 161.175 308.479 166.867 309.833 171.006Z" fill="white"/>
<path d="M341.374 87.8081H283.099C284.326 85.3258 286.875 83.8166 289.624 83.4635C292.659 70.8854 309.666 71.5645 317.141 79.9814C319.817 76.0088 324.943 79.4127 326.966 82.4555C332.146 77.4076 339.362 81.744 341.374 87.8081Z" fill="white"/>
<path d="M200.811 206.41H138.604C140.096 204.143 141.585 202.869 144.202 202.141C148.081 187.194 168.319 187.204 177.732 197.15C181.222 192.495 188.951 194.915 189.165 200.723C193.27 199.209 199.213 202.338 200.811 206.41Z" fill="white"/>
<path d="M200.365 369.074C179.855 368.98 163.69 372.917 153.245 350.238C161.624 350.049 168.997 355.385 175.652 360.476C167.863 353.642 165.835 342.268 166.458 331.93C175.104 339.269 183.367 347.58 187.816 358.008C187.149 350.243 186.513 342.212 189.04 334.84C197.665 342.91 202.324 357.434 200.365 369.074Z" fill="#65D1EA"/>
<path d="M341.515 162.01L308.533 207.097L260.781 216.877V289.775L183.953 369.074H345.294L379.571 211.169L341.515 162.01Z" fill="#1AAAE2"/>
<path d="M403.956 113.977L341.515 162.01L354.631 211.169L302.881 241.627L297.472 317.354L228.065 369.074H471.326L486.071 241.524L452.782 209.892L439.692 145.799L403.956 113.977Z" fill="#BEDBFA"/>
<path d="M439.692 145.799L389.909 196.836L400.354 212.565V276.466L435.854 286.549L437.534 280.66L412.321 266.67L419.422 210.738L400.354 198.712L443.901 166.403L439.692 145.799Z" fill="#1AAAE2"/>
<path d="M309.833 369.074L358.82 306.76L435.014 298.432L409.893 310.185L443.901 335.28L382.865 321.303L347.889 333.751L341.212 369.074H309.833Z" fill="#1AAAE2"/>
<path d="M354.631 211.169L369.131 204.11L376.865 223.629L349.567 277.224H357.07L391.592 221.847L376.865 187.824H355.362L341.515 162.01L354.631 211.169Z" fill="#DCECFD"/>
<path d="M437.534 280.66L440.701 267.637L458.274 286.549L451.926 325.181L446.558 323.232L450.464 286.549L437.534 280.66Z" fill="#DCECFD"/>
<path d="M314.006 235.08L321.058 286.549L309.833 325.181L276.924 361.506L297.472 317.354L302.881 241.627L314.006 235.08Z" fill="#DCECFD"/>
<path d="M486.071 241.524L505.039 301.979L503.232 369.074H471.326L486.071 241.524Z" fill="#1AAAE2"/>
<path d="M496.228 369.074C496.228 369.074 518.959 363.867 523.556 345.75C523.556 345.75 506.717 349.09 501.591 354.682C501.591 354.682 515.128 339.374 514.106 319.98C514.106 319.98 493.673 331.207 492.397 345.75C492.397 345.75 491.78 325.914 475.998 310.062C475.998 310.062 471.709 334.779 478.094 350.852C478.094 350.852 465.323 339.371 451.789 336.819C451.789 336.819 451.533 356.722 471.965 360.037C471.965 360.037 461.493 355.445 448.468 356.21C461.344 369.187 473.535 369.931 496.228 369.074Z" fill="#65D1EA"/>
<path d="M407.768 112.579L425.562 151.542H416.665L401.701 119.308L407.768 112.579Z" fill="#2A437D"/>
<path d="M378.789 112.579L360.998 151.542H369.895L384.856 119.308L378.789 112.579Z" fill="#2A437D"/>
<path d="M415.702 54.7653C381.441 46.6233 343.498 138.584 385.102 147.955C419.36 156.097 457.306 64.1363 415.702 54.7653Z" fill="#027FA6"/>
<path d="M379.218 147.397C337.611 138.021 375.571 46.0522 409.821 54.2104C451.425 63.584 413.468 155.553 379.218 147.397Z" fill="#1AAAE2"/>
<path d="M382.582 137.155C350.121 129.841 379.736 58.0885 406.459 64.4517C438.916 71.7663 409.303 143.516 382.582 137.155Z" fill="white"/>
<path d="M385.943 126.914C362.63 121.661 383.899 70.1248 403.093 74.6957C426.406 79.9459 405.138 131.482 385.943 126.914Z" fill="#1AAAE2"/>
<path d="M389.307 116.67C375.139 113.476 388.064 82.1562 399.729 84.9348C413.897 88.1286 400.972 119.449 389.307 116.67Z" fill="white"/>
<path d="M398.121 101.359C397.101 104.466 394.66 106.736 392.671 106.428C387.646 105.302 392.232 94.1872 396.367 95.1763C398.355 95.4835 399.141 98.2514 398.121 101.359Z" fill="#1AAAE2"/>
<path d="M88.2892 358.153L89.2522 361.525L99.6573 365.98C100.896 366.511 101.699 367.729 101.699 369.077H80.2095L81.0242 358.153H88.2892Z" fill="#152E60"/>
<path d="M40.0489 358.153L41.0119 361.525L51.417 365.98C52.6552 366.511 53.4592 367.729 53.4592 369.077H31.9692L32.7839 358.153H40.0489Z" fill="#152E60"/>
<path d="M80.2665 173.79L101.924 191.258L106.011 155.458L115.264 154.536L117.972 200.006C118.18 203.504 116.88 206.924 114.401 209.404C110.805 212.996 105.366 213.999 100.723 211.932L72.0762 199.761L80.2665 173.79Z" fill="#1AAAE2"/>
<mask id="mask0_113_453" style="mask-type:luminance" maskUnits="userSpaceOnUse" x="72" y="154" width="46" height="59">
<path d="M80.2665 173.79L101.924 191.258L106.011 155.458L115.264 154.536L117.972 200.006C118.18 203.504 116.88 206.924 114.401 209.404C110.805 212.996 105.366 213.999 100.723 211.932L72.0762 199.761L80.2665 173.79Z" fill="white"/>
</mask>
<g mask="url(#mask0_113_453)">
<path d="M81.9795 175.119C81.9795 175.119 98.4301 193.761 100.726 211.926L79.9805 206.043L81.9795 175.119Z" fill="#3C7ED7"/>
</g>
<path d="M101.281 280.539L90.8116 231.321C78.0731 231.321 58.7332 231.321 46.0729 231.321L31.972 360.094H42.2017L69.1221 264.799L79.7726 287.886L80.064 360.468H90.8116L101.5 287.347C101.832 285.08 101.756 282.776 101.281 280.539Z" fill="#0090BC"/>
<path d="M69.1223 264.797L73.0852 249.397C91.4188 293.869 88.7049 283.15 79.9428 329.687L79.7755 287.883L69.1223 264.797Z" fill="#2A437D"/>
<path d="M69.4647 172.06L70.6787 160.714H70.6814C59.7233 147.92 76.851 131.038 87.4665 144.805C93.4608 153.426 91.6722 167.845 80.1827 166.352L81.9821 175.119L69.4647 172.06Z" fill="#F4D2C6"/>
<mask id="mask1_113_453" style="mask-type:luminance" maskUnits="userSpaceOnUse" x="67" y="139" width="24" height="37">
<path d="M69.4647 172.06L70.6787 160.714H70.6814C59.7233 147.92 76.851 131.038 87.4665 144.805C93.4608 153.426 91.6722 167.845 80.1827 166.352L81.9821 175.119L69.4647 172.06Z" fill="white"/>
</mask>
<g mask="url(#mask1_113_453)">
<path d="M80.1802 166.355C80.1802 166.355 77.6632 165.274 77.1183 163.819C77.1183 163.819 84.2429 166.81 88.6078 163.358C88.6078 163.358 85.7644 167.891 80.1802 166.355Z" fill="#EDA19D"/>
</g>
<mask id="mask2_113_453" style="mask-type:luminance" maskUnits="userSpaceOnUse" x="67" y="139" width="24" height="37">
<path d="M69.4647 172.06L70.6787 160.714H70.6814C59.7233 147.92 76.851 131.038 87.4665 144.805C93.4608 153.426 91.6722 167.845 80.1827 166.352L81.9821 175.119L69.4647 172.06Z" fill="white"/>
</mask>
<g mask="url(#mask2_113_453)">
<path d="M78.184 150.467C78.184 150.467 82.2116 144.548 90.2049 147.394C90.2049 147.394 86.563 141.285 84.9552 140.603C83.3474 139.921 79.2334 144.354 79.2334 144.354L78.184 150.467Z" fill="#EDA19D"/>
</g>
<path d="M78.7989 150.13C78.7989 150.13 81.4049 141.689 85.3328 142.36C79.2171 132.385 58.9816 143.891 64.3203 154.714C66.4812 158.515 70.463 162.719 70.463 162.719C70.463 162.719 74.345 162.102 74.399 161.598C74.4529 161.094 75.8314 154.636 75.8314 154.636L78.7989 150.13Z" fill="#59445A"/>
<path d="M79.8592 153.135C78.8826 156.445 73.7057 154.836 74.7767 151.558C75.7533 148.251 80.9329 149.858 79.8592 153.135Z" fill="#F4D2C6"/>
<path d="M93.1506 230.9L82.1871 173.082L69.3676 165.764C47.9343 169.459 42.5038 233.673 41.6109 239.977C41.6109 239.975 67.5844 248.348 93.1506 230.9Z" fill="#1AAAE2"/>
<path d="M82.1871 173.082L80.9435 174.047L85.3327 209.676L96.0479 218.46L95.3277 204.634L82.1871 173.082Z" fill="#324D90"/>
<path d="M158.946 131.452L122.86 136.531L125.217 153.245L161.303 148.166L158.946 131.452Z" fill="#324D90"/>
<path d="M123.255 138.831L101.474 141.897L103.179 153.992L124.961 150.926L123.255 138.831Z" fill="#2A437D"/>
<path d="M101.922 145.056L85.3303 147.392L86.145 153.169L102.736 150.834L101.922 145.056Z" fill="#152E60"/>
<path d="M161.045 128.867L157.378 129.383L160.349 150.453L164.016 149.936L161.045 128.867Z" fill="#152E60"/>
<path d="M161.06 224.006L129.958 229.06C126.543 229.615 123.613 231.803 122.116 234.919L113.424 253.017L117.468 258.418L127.533 238.997C128.512 237.107 130.223 235.698 132.267 235.099L162.568 226.227C163.218 225.146 162.304 223.804 161.06 224.006Z" fill="#00ACE8"/>
<path d="M56.3052 302.281L69.9448 273.901C71.442 270.786 74.3717 268.597 77.787 268.042L97.6205 264.827L101.664 270.228L80.1745 274.386C78.0838 274.791 76.2466 276.033 75.0947 277.823L58.0155 304.353C56.7935 304.671 55.7602 303.415 56.3052 302.281Z" fill="#00ACE8"/>
<path d="M117.543 258.516L113.418 253.006L97.6129 264.815L101.738 270.325L117.543 258.516Z" fill="#2A437D"/>
<path d="M162.571 226.227C129.23 251.456 91.6588 279.531 58.0157 304.353C91.354 279.124 128.928 251.052 162.571 226.227Z" fill="#324D90"/>
<path d="M82.1872 173.082L78.2647 176.13C78.2647 176.13 66.4784 171.117 69.3677 165.764L82.1872 173.082Z" fill="white"/>
<path d="M106.922 155.366C107.125 155.191 101.12 145.559 106.259 149.116L109.787 153.068L115.728 152.232L114.417 154.623L106.922 155.366Z" fill="#F4D2C6"/>
<path d="M72.0762 181.978L74.3719 218.46L107.815 255.024L99.7708 261.172C95.5057 257.604 61.7925 235.568 59.6505 231.11C53.1976 223.99 54.5492 200.292 53.1572 191.435L72.0762 181.978Z" fill="#1AAAE2"/>
<path d="M70.7921 240.543C55.1993 229.046 55.4448 223.901 54.2551 206.119C51.053 225.06 44.6432 230.968 66.8345 241.266L70.7921 240.543Z" fill="#0199B3"/>
<path d="M88.4944 233.797L74.3692 218.459L73.452 203.873L79.0201 218.459L91.0195 232.294L88.4944 233.797Z" fill="#1AAAE2"/>
<path d="M106.318 255.741C106.318 255.741 111.093 256.471 111.768 257.312C112.199 257.849 112.858 261.088 113.278 263.358C113.524 264.686 112.849 266.015 111.627 266.597C102.547 271.37 104.918 269.06 100.47 260.633L106.318 255.741Z" fill="#F4D2C6"/>
<path d="M134.401 312.983L133.694 315.458L128.86 310.655L129.567 308.181L134.401 312.983Z" fill="#4292F3"/>
<path d="M135.111 310.496L134.404 312.967L129.57 308.167L130.276 305.693L135.111 310.496Z" fill="white"/>
<path d="M135.815 308.03L135.108 310.501L130.274 305.701L130.98 303.227L135.815 308.03Z" fill="#4292F3"/>
<path d="M136.511 305.588L135.807 308.062L130.97 303.262L131.677 300.788L136.511 305.588Z" fill="white"/>
<path d="M137.215 303.122L136.511 305.596L131.674 300.796L132.381 298.322L137.215 303.122Z" fill="#4292F3"/>
<path d="M143.703 304.221L144.41 301.75L137.768 303.281L137.061 305.752L143.703 304.221Z" fill="#4292F3"/>
<path d="M142.993 306.712L143.7 304.238L137.058 305.768L136.352 308.243L142.993 306.712Z" fill="white"/>
<path d="M142.289 309.178L142.996 306.704L136.354 308.234L135.648 310.709L142.289 309.178Z" fill="#4292F3"/>
<path d="M141.593 311.617L142.3 309.143L135.656 310.673L134.952 313.148L141.593 311.617Z" fill="white"/>
<path d="M140.889 314.083L141.596 311.609L134.952 313.139L134.247 315.614L140.889 314.083Z" fill="#4292F3"/>
<path d="M138.27 303.391L119.518 369.074L117.851 369.085L136.729 302.955L138.27 303.391Z" fill="#152E60"/>
<path d="M126.187 285.528L126.362 282.962C117.959 286.657 121.69 286.897 113.882 282.111L113.707 284.676L113.534 287.199L113.359 289.757L113.184 292.322L118.42 295.697V295.713L113.184 292.339L113.008 294.904L118.245 298.279L114.406 369.074H115.97L119.842 298.386L125.488 295.756L125.663 293.19L125.839 290.633L126.011 288.102L126.187 285.544L120.54 288.175V288.158L126.187 285.528Z" fill="#152E60"/>
<path d="M108.449 310.641L108.487 313.212L102.471 310.01L102.431 307.439L108.449 310.641Z" fill="#4292F3"/>
<path d="M108.409 308.054L108.449 310.625L102.431 307.423L102.393 304.852L108.409 308.054Z" fill="white"/>
<path d="M108.371 305.491L108.409 308.062L102.393 304.86L102.353 302.289L108.371 305.491Z" fill="#4292F3"/>
<path d="M108.331 302.952L108.371 305.526L102.355 302.324L102.315 299.753L108.331 302.952Z" fill="white"/>
<path d="M108.293 300.389L108.331 302.96L102.315 299.759L102.277 297.187L108.293 300.389Z" fill="#4292F3"/>
<path d="M114.821 299.569L114.784 296.998L108.868 300.381L108.905 302.952L114.821 299.569Z" fill="#4292F3"/>
<path d="M114.862 302.157L114.821 299.586L108.905 302.968L108.946 305.539L114.862 302.157Z" fill="white"/>
<path d="M114.9 304.72L114.862 302.149L108.946 305.531L108.983 308.102L114.9 304.72Z" fill="#4292F3"/>
<path d="M114.94 307.259L114.9 304.685L108.983 308.067L109.024 310.641L114.94 307.259Z" fill="white"/>
<path d="M114.978 309.822L114.94 307.251L109.021 310.633L109.062 313.204L114.978 309.822Z" fill="#4292F3"/>
<path d="M107.783 300.364L108.83 369.125L110.429 369.101L109.383 300.339L107.783 300.364Z" fill="#152E60"/>
<path d="M16 369.636C183.645 368.308 355.355 368.297 523 369.636C355.355 370.973 183.645 370.962 16 369.636Z" fill="#152E60"/>
</svg>
