<?xml version="1.0" encoding="utf-8"?>
<!-- Generator: Adobe Illustrator 24.3.0, SVG Export Plug-In . SVG Version: 6.00 Build 0)  -->
<svg version="1.1" xmlns="http://www.w3.org/2000/svg" xmlns:xlink="http://www.w3.org/1999/xlink" x="0px" y="0px"
	 viewBox="0 0 1000 322.4" style="enable-background:new 0 0 1000 322.4;" xml:space="preserve">
<style type="text/css">
	.st0{fill:#1D2857;}
	.st1{fill:#FFFFFF;}
	.st2{fill:#00ACE8;}
	.st3{fill:#2B2D36;}
	.st4{fill:#F1F4FB;}
	.st5{fill:#404147;}
	.st6{fill:#2E848D;}
	.st7{fill:#F7B52B;}
	.st8{fill:#A31E22;}
	.st9{fill:none;stroke:#F1F4FB;stroke-width:18;stroke-miterlimit:10;}
	.st10{fill:#FCF0EB;}
	.st11{fill:url(#SVGID_1_);}
	.st12{fill:url(#SVGID_2_);}
	.st13{fill:url(#SVGID_3_);}
	.st14{fill:url(#SVGID_4_);}
	.st15{fill:url(#SVGID_5_);}
	.st16{fill:url(#SVGID_6_);}
	.st17{fill:url(#SVGID_7_);}
	.st18{fill:url(#SVGID_8_);}
	.st19{fill:url(#SVGID_9_);}
	.st20{fill:url(#SVGID_10_);}
	.st21{fill:url(#SVGID_11_);}
	.st22{fill:url(#SVGID_12_);}
	.st23{fill:url(#SVGID_13_);}
	.st24{fill:url(#SVGID_14_);}
	.st25{fill:url(#SVGID_15_);}
	.st26{fill:url(#SVGID_16_);}
	.st27{fill:url(#SVGID_17_);}
	.st28{fill:url(#SVGID_18_);}
	.st29{fill:url(#SVGID_19_);}
	.st30{fill:url(#SVGID_20_);}
	.st31{fill:url(#SVGID_21_);}
	.st32{fill:url(#SVGID_22_);}
	.st33{fill:url(#SVGID_23_);}
	.st34{fill:url(#SVGID_24_);}
	.st35{fill:url(#SVGID_25_);}
	.st36{fill:url(#SVGID_26_);}
	.st37{fill:url(#SVGID_27_);}
	.st38{fill:url(#SVGID_28_);}
	.st39{fill:url(#SVGID_29_);}
	.st40{fill:url(#SVGID_30_);}
	.st41{fill:url(#SVGID_31_);}
	.st42{fill:url(#SVGID_32_);}
	.st43{fill:url(#SVGID_33_);}
	.st44{fill:url(#SVGID_34_);}
	.st45{fill:url(#SVGID_35_);}
	.st46{fill:url(#SVGID_36_);}
	.st47{fill:url(#SVGID_37_);}
	.st48{fill:url(#SVGID_38_);}
	.st49{fill:url(#SVGID_39_);}
	.st50{fill:url(#SVGID_40_);}
	.st51{fill:url(#SVGID_41_);}
	.st52{fill:url(#SVGID_42_);}
	.st53{fill:url(#SVGID_43_);}
	.st54{fill:url(#SVGID_44_);}
	.st55{fill:url(#SVGID_45_);}
	.st56{fill:url(#SVGID_46_);}
	.st57{fill:url(#SVGID_47_);}
	.st58{fill:url(#SVGID_48_);}
	.st59{fill:url(#SVGID_49_);}
	.st60{fill:url(#SVGID_50_);}
	.st61{fill:url(#SVGID_51_);}
	.st62{fill:url(#SVGID_52_);}
	.st63{fill:url(#SVGID_53_);}
	.st64{fill:url(#SVGID_54_);}
	.st65{fill:url(#SVGID_55_);}
	.st66{fill:url(#SVGID_56_);}
	.st67{fill:url(#SVGID_57_);}
	.st68{fill:url(#SVGID_58_);}
	.st69{fill:url(#SVGID_59_);}
	.st70{fill:url(#SVGID_60_);}
	.st71{fill:url(#SVGID_61_);}
	.st72{fill:url(#SVGID_62_);}
	.st73{fill:url(#SVGID_63_);}
	.st74{fill:url(#SVGID_64_);}
	.st75{fill:url(#SVGID_65_);}
	.st76{fill:url(#SVGID_66_);}
	.st77{fill:url(#SVGID_67_);}
	.st78{fill:url(#SVGID_68_);}
	.st79{fill:url(#SVGID_69_);}
	.st80{fill:url(#SVGID_70_);}
	.st81{fill:url(#SVGID_71_);}
	.st82{fill:url(#SVGID_72_);}
	.st83{fill:url(#SVGID_73_);}
	.st84{fill:url(#SVGID_74_);}
	.st85{fill:url(#SVGID_75_);}
	.st86{fill:url(#SVGID_76_);}
	.st87{fill:url(#SVGID_77_);}
	.st88{fill:url(#SVGID_78_);}
	.st89{fill:url(#SVGID_79_);}
	.st90{fill:url(#SVGID_80_);}
	.st91{fill:url(#SVGID_81_);}
	.st92{fill:url(#SVGID_82_);}
	.st93{fill:url(#SVGID_83_);}
	.st94{fill:url(#SVGID_84_);}
	.st95{fill:url(#SVGID_85_);}
	.st96{fill:url(#SVGID_86_);}
	.st97{fill:url(#SVGID_87_);}
	.st98{fill:url(#SVGID_88_);}
	.st99{fill:url(#SVGID_89_);}
	.st100{fill:url(#SVGID_90_);}
	.st101{fill:url(#SVGID_91_);}
	.st102{fill:url(#SVGID_92_);}
	.st103{fill:url(#SVGID_93_);}
	.st104{fill:url(#SVGID_94_);}
	.st105{fill:url(#SVGID_95_);}
	.st106{fill:url(#SVGID_96_);}
	.st107{fill:url(#SVGID_97_);}
	.st108{fill:url(#SVGID_98_);}
	.st109{fill:url(#SVGID_99_);}
	.st110{fill:url(#SVGID_100_);}
	.st111{fill:url(#SVGID_101_);}
	.st112{fill:url(#SVGID_102_);}
	.st113{fill:url(#SVGID_103_);}
	.st114{fill:url(#SVGID_104_);}
	.st115{fill:url(#SVGID_105_);}
	.st116{fill:url(#SVGID_106_);}
	.st117{fill:url(#SVGID_107_);}
	.st118{fill:url(#SVGID_108_);}
	.st119{fill:#58BDEC;}
	.st120{fill:#007E93;}
	.st121{fill:#F1F1F2;}
</style>
<g id="Layer_1">
	<g>
		<g>
			<polygon class="st2" points="120.66,161.2 276.16,5.7 161.5,5.7 6,161.2 161.5,316.7 276.16,316.7 			"/>
			<polygon class="st3" points="79.99,316.7 6,242.72 6,316.7 			"/>
		</g>
		<g>
			<g>
				<path class="st2" d="M380.65,171.87l-36.29-47.67v47.67h-26.29V63.92h26.29v47.36l35.98-47.36h30.91l-41.82,52.9l43.36,55.05
					H380.65z"/>
				<path class="st2" d="M497.05,152.8h-40.29l-6.46,19.07h-27.52l39.06-107.94h30.45l39.06,107.94h-27.83L497.05,152.8z
					 M490.28,132.5L476.9,92.98l-13.22,39.52H490.28z"/>
				<path class="st2" d="M618.06,70.69c8.51,4.51,15.09,10.84,19.76,18.99c4.66,8.15,7,17.56,7,28.22c0,10.56-2.33,19.94-7,28.14
					c-4.67,8.2-11.28,14.56-19.84,19.07c-8.56,4.51-18.48,6.77-29.75,6.77h-40.44V63.92h40.44
					C599.61,63.92,609.55,66.18,618.06,70.69z M609.76,140.96c5.54-5.43,8.3-13.12,8.3-23.07c0-9.94-2.77-17.68-8.3-23.22
					c-5.54-5.54-13.28-8.3-23.22-8.3h-12.46v62.74h12.46C596.48,149.11,604.22,146.39,609.76,140.96z"/>
				<path class="st2" d="M734.46,70.69c8.51,4.51,15.09,10.84,19.76,18.99c4.66,8.15,7,17.56,7,28.22c0,10.56-2.33,19.94-7,28.14
					c-4.67,8.2-11.28,14.56-19.84,19.07c-8.56,4.51-18.48,6.77-29.75,6.77h-40.44V63.92h40.44
					C716.01,63.92,725.95,66.18,734.46,70.69z M726.16,140.96c5.54-5.43,8.3-13.12,8.3-23.07c0-9.94-2.77-17.68-8.3-23.22
					c-5.54-5.54-13.28-8.3-23.22-8.3h-12.46v62.74h12.46C712.88,149.11,720.62,146.39,726.16,140.96z"/>
				<path class="st2" d="M847.78,152.8H807.5l-6.46,19.07h-27.52l39.06-107.94h30.45l39.06,107.94h-27.83L847.78,152.8z
					 M841.02,132.5l-13.38-39.52l-13.22,39.52H841.02z"/>
				<path class="st2" d="M992.01,63.92v107.94h-26.29v-44.44h-40.9v44.44h-26.29V63.92h26.29v42.29h40.9V63.92H992.01z"/>
				<path class="st3" d="M313.27,212.13c1.82-3.3,4.36-5.87,7.63-7.72c3.26-1.84,6.96-2.77,11.09-2.77c5.06,0,9.4,1.34,13,4.01
					c3.61,2.67,6.02,6.32,7.23,10.94H340.8c-0.85-1.78-2.06-3.14-3.62-4.07c-1.56-0.93-3.33-1.4-5.32-1.4
					c-3.2,0-5.79,1.11-7.78,3.34c-1.99,2.23-2.98,5.21-2.98,8.93c0,3.73,0.99,6.71,2.98,8.93c1.98,2.23,4.58,3.34,7.78,3.34
					c1.98,0,3.76-0.47,5.32-1.4c1.56-0.93,2.77-2.29,3.62-4.07h11.42c-1.22,4.62-3.63,8.25-7.23,10.91c-3.61,2.65-7.94,3.98-13,3.98
					c-4.13,0-7.83-0.92-11.09-2.76c-3.26-1.84-5.8-4.41-7.63-7.69c-1.82-3.28-2.73-7.03-2.73-11.24
					C310.54,219.19,311.45,215.43,313.27,212.13z"/>
				<path class="st3" d="M369,236.77h13.61v8.02h-24v-42.66H369V236.77z"/>
				<path class="st3" d="M397.99,210.45v8.63h13.92v8.02h-13.92v9.36h15.74v8.33H387.6v-42.66h26.13v8.33H397.99z"/>
				<path class="st3" d="M447.03,237.25h-15.92l-2.55,7.54h-10.88l15.44-42.66h12.03l15.44,42.66h-11L447.03,237.25z M444.35,229.23
					l-5.29-15.62l-5.23,15.62H444.35z"/>
				<path class="st3" d="M503.42,244.79h-10.39l-17.38-26.31v26.31h-10.39v-42.66h10.39l17.38,26.44v-26.44h10.39V244.79z"/>
				<path class="st3" d="M521.35,202.13v42.66h-10.39v-42.66H521.35z"/>
				<path class="st3" d="M567.05,244.79h-10.39l-17.38-26.31v26.31h-10.39v-42.66h10.39l17.38,26.44v-26.44h10.39V244.79z"/>
				<path class="st3" d="M602.91,215.62c-0.77-1.42-1.87-2.5-3.31-3.25c-1.44-0.75-3.13-1.12-5.07-1.12c-3.36,0-6.06,1.1-8.08,3.31
					c-2.03,2.21-3.04,5.16-3.04,8.84c0,3.93,1.06,7,3.19,9.21c2.13,2.21,5.05,3.31,8.78,3.31c2.55,0,4.71-0.65,6.47-1.94
					c1.76-1.3,3.05-3.16,3.86-5.59h-13.19v-7.66h22.61v9.66c-0.77,2.59-2.08,5-3.92,7.23c-1.84,2.23-4.18,4.03-7.02,5.41
					c-2.84,1.38-6.04,2.07-9.6,2.07c-4.21,0-7.97-0.92-11.27-2.76c-3.3-1.84-5.87-4.41-7.72-7.69c-1.84-3.28-2.77-7.03-2.77-11.24
					c0-4.21,0.92-7.97,2.77-11.27c1.84-3.3,4.41-5.87,7.69-7.72s7.03-2.77,11.24-2.77c5.1,0,9.41,1.24,12.91,3.71
					c3.5,2.47,5.82,5.89,6.96,10.27H602.91z"/>
				<path class="st3" d="M644.17,210.45v8.63h13.92v8.02h-13.92v9.36h15.74v8.33h-26.13v-42.66h26.13v8.33H644.17z"/>
				<path class="st3" d="M697.04,252.08l-5.47-7.35c-1.62,0.32-3.2,0.49-4.74,0.49c-4.01,0-7.69-0.93-11.03-2.8
					c-3.34-1.86-6-4.47-7.96-7.81c-1.97-3.34-2.95-7.1-2.95-11.27c0-4.17,0.98-7.92,2.95-11.24c1.96-3.32,4.62-5.92,7.96-7.78
					c3.34-1.86,7.02-2.79,11.03-2.79s7.69,0.93,11.03,2.79c3.34,1.86,5.98,4.46,7.9,7.78c1.92,3.32,2.89,7.07,2.89,11.24
					c0,3.65-0.74,6.98-2.22,10c-1.48,3.02-3.54,5.52-6.17,7.5l9.36,11.24H697.04z M678.59,232.36c2.04,2.25,4.79,3.37,8.23,3.37
					c3.4,0,6.13-1.13,8.17-3.4c2.04-2.27,3.07-5.27,3.07-8.99c0-3.77-1.02-6.78-3.07-9.02c-2.05-2.25-4.77-3.37-8.17-3.37
					c-3.44,0-6.19,1.12-8.23,3.34c-2.05,2.23-3.07,5.25-3.07,9.05C675.52,227.11,676.55,230.11,678.59,232.36z"/>
				<path class="st3" d="M724.75,202.13v25.52c0,2.55,0.63,4.52,1.88,5.9c1.26,1.38,3.1,2.07,5.53,2.07c2.43,0,4.29-0.69,5.59-2.07
					c1.3-1.38,1.94-3.34,1.94-5.9v-25.52h10.39v25.46c0,3.81-0.81,7.03-2.43,9.66c-1.62,2.63-3.8,4.62-6.53,5.96
					c-2.73,1.34-5.78,2.01-9.15,2.01c-3.36,0-6.37-0.66-9.02-1.98c-2.65-1.32-4.75-3.3-6.29-5.96c-1.54-2.65-2.31-5.88-2.31-9.69
					v-25.46H724.75z"/>
				<path class="st3" d="M767.77,202.13v42.66h-10.39v-42.66H767.77z"/>
				<path class="st3" d="M806.12,222.64c-1.13,2.05-2.88,3.7-5.23,4.95c-2.35,1.26-5.27,1.88-8.75,1.88h-6.44v15.31h-10.39v-42.66
					h16.83c3.4,0,6.28,0.59,8.63,1.76c2.35,1.17,4.11,2.79,5.29,4.86c1.17,2.07,1.76,4.44,1.76,7.11
					C807.82,218.33,807.25,220.59,806.12,222.64z M795.79,219.81c0.97-0.93,1.46-2.25,1.46-3.95c0-1.7-0.49-3.02-1.46-3.95
					c-0.97-0.93-2.45-1.4-4.44-1.4h-5.65v10.7h5.65C793.34,221.21,794.82,220.75,795.79,219.81z"/>
				<path class="st3" d="M861.54,202.13v42.66h-10.39v-25.58l-9.54,25.58h-8.39l-9.6-25.65v25.65h-10.39v-42.66h12.28l11.97,29.53
					l11.85-29.53H861.54z"/>
				<path class="st3" d="M879.41,210.45v8.63h13.92v8.02h-13.92v9.36h15.74v8.33h-26.13v-42.66h26.13v8.33H879.41z"/>
				<path class="st3" d="M940.06,244.79h-10.39l-17.38-26.31v26.31h-10.39v-42.66h10.39l17.38,26.44v-26.44h10.39V244.79z"/>
				<path class="st3" d="M978.28,202.13v8.33h-11.3v34.34h-10.39v-34.34h-11.3v-8.33H978.28z"/>
			</g>
		</g>
	</g>
</g>
</svg>
