<svg width="49" height="42" viewBox="0 0 49 42" fill="none" xmlns="http://www.w3.org/2000/svg">
<path d="M1.26282 28.6226C1.54282 28.6226 1.74282 28.6226 1.95282 28.6226C4.66282 28.6226 7.37282 28.6226 10.0728 28.6226C10.7828 28.6226 10.8428 28.5626 10.8428 27.8426C10.8428 26.8026 10.8328 25.7626 10.8528 24.7226C10.8628 24.2226 10.6528 24.0526 10.1728 24.0526C7.43282 24.0626 4.68282 24.0526 1.94282 24.0526C1.74282 24.0526 1.53282 24.0526 1.29282 24.0526C1.29282 22.9326 1.29282 21.8626 1.29282 20.7026C1.48282 20.7026 1.68282 20.7026 1.88282 20.7026C4.61282 20.7026 7.33282 20.7026 10.0628 20.7026C10.7828 20.7026 10.8428 20.6426 10.8428 19.9326C10.8428 18.9126 10.8428 17.8826 10.8428 16.8626C10.8428 16.2226 10.7528 16.1326 10.1228 16.1326C7.39282 16.1326 4.67282 16.1326 1.94282 16.1326C1.73282 16.1326 1.53282 16.1326 1.29282 16.1326C1.29282 15.1426 1.29282 14.2026 1.29282 13.1926C1.51282 13.1926 1.72282 13.1926 1.92282 13.1926C4.65282 13.1926 7.37282 13.1926 10.1028 13.1926C10.7828 13.1926 10.8428 13.1226 10.8428 12.4426C10.8428 11.4226 10.8428 10.3926 10.8428 9.37263C10.8428 8.71263 10.7628 8.63263 10.0828 8.63263C7.37282 8.63263 4.66282 8.63263 1.96282 8.63263C1.75282 8.63263 1.55282 8.63263 1.30282 8.63263C1.30282 6.26263 1.30282 3.93263 1.30282 1.44263C2.67282 1.65263 4.04282 1.76263 5.36282 2.07263C9.41282 3.02263 12.8128 5.10263 15.5728 8.21263C15.7828 8.45263 15.8228 8.62263 15.6928 8.93263C15.1328 10.1426 14.5928 11.3626 14.0928 12.6026C13.4228 14.2526 13.8228 15.9926 15.0728 17.0626C16.3928 18.2026 18.1228 18.3526 19.7128 17.4726C19.8028 17.4226 19.8928 17.3726 20.0528 17.2926C20.6728 20.0826 20.3528 22.8726 20.4528 25.6326C19.7628 25.7526 19.1028 25.8026 18.4828 25.9826C15.7128 26.7626 13.8028 29.2626 13.7828 32.1426C13.7628 35.0426 13.7728 37.9426 13.7728 40.8426C13.7728 41.0526 13.7728 41.2526 13.7728 41.5226C13.5628 41.5326 13.3828 41.5526 13.1928 41.5626C9.56282 41.5626 5.93282 41.5626 2.31282 41.5626C1.46282 41.5626 1.27282 41.3726 1.27282 40.5226C1.27282 36.7526 1.27282 32.9926 1.27282 29.2226C1.26282 29.0426 1.26282 28.8726 1.26282 28.6226Z" fill="#00ACE8"/>
<path d="M33.7328 35.6126C33.3728 35.6626 33.0228 35.6826 32.6928 35.7626C31.4328 36.0826 30.5628 37.1226 30.5228 38.4226C30.4928 39.2726 30.5028 40.1226 30.5228 40.9726C30.5328 41.3926 30.4028 41.5626 29.9628 41.5626C28.7828 41.5426 27.6028 41.5426 26.4228 41.5626C25.9528 41.5726 25.8428 41.3926 25.8428 40.9526C25.8628 38.0926 25.8528 35.2226 25.8528 32.3526C25.8528 31.6126 25.7928 31.5526 25.0528 31.5526C22.2528 31.5526 19.4628 31.5526 16.6628 31.5526C15.9028 31.5526 15.8528 31.6126 15.8528 32.3926C15.8528 35.2426 15.8428 38.0926 15.8628 40.9326C15.8628 41.4126 15.7228 41.5626 15.2428 41.5626C14.7528 41.5626 14.5828 41.4226 14.5928 40.9126C14.6128 38.1026 14.6028 35.2826 14.6028 32.4726C14.6028 29.1726 17.1428 26.5526 20.4328 26.5326C24.6828 26.5026 28.9428 26.5226 33.1928 26.5226C33.5128 26.5226 33.7728 26.5226 33.7728 26.9726C33.7628 29.7826 33.7628 32.6026 33.7628 35.4126C33.7628 35.4826 33.7428 35.5526 33.7328 35.6126Z" fill="#00ACE8"/>
<path d="M30.8428 20.0126C29.0428 20.0126 27.2328 20.0026 25.4328 20.0226C24.9428 20.0226 24.7228 19.8726 24.6828 19.3526C24.4128 16.0026 24.1228 12.6526 23.8328 9.30259C23.7928 8.78259 23.9328 8.65259 24.5528 8.65259C28.4728 8.65259 32.3928 8.65259 36.3228 8.65259C36.4128 8.65259 36.4928 8.65259 36.5828 8.65259C37.9628 8.65259 37.9428 8.67259 37.8028 10.0626C37.5828 12.3226 37.4028 14.5826 37.2128 16.8526C37.1328 17.7326 37.0628 18.6126 36.9928 19.4926C36.9628 19.9126 36.7028 20.0226 36.3128 20.0226C34.4928 20.0026 32.6728 20.0126 30.8428 20.0126ZM28.1628 16.0826C28.1728 16.0826 28.1728 16.0826 28.1628 16.0826C28.0928 14.5726 28.0228 13.0626 27.9428 11.5626C27.9028 10.8526 27.4228 10.4326 26.7028 10.4626C26.0628 10.4926 25.5928 10.9526 25.6328 11.6126C25.7528 13.6526 25.8828 15.7026 26.0428 17.7426C26.0928 18.3726 26.6228 18.8026 27.2028 18.7626C27.8028 18.7126 28.2428 18.2426 28.2328 17.6026C28.2428 17.0926 28.1928 16.5826 28.1628 16.0826Z" fill="#00ACE8"/>
<path d="M18.7629 41.1326C18.1129 41.1326 17.5329 41.1426 16.9429 41.1226C16.8529 41.1226 16.6929 40.9326 16.6929 40.8326C16.6829 38.0426 16.6829 35.2526 16.6829 32.4126C19.4629 32.4126 22.2129 32.4126 24.9929 32.4126C25.0029 32.5926 25.0129 32.7526 25.0129 32.9026C25.0129 35.4726 25.0029 38.0426 25.0229 40.6126C25.0229 41.0126 24.9329 41.1826 24.5029 41.1526C23.9929 41.1226 23.4729 41.1426 22.9229 41.1426C22.9229 40.4826 22.9229 39.9126 22.9229 39.3426C22.9229 38.8726 22.7029 38.6426 22.2229 38.6426C21.2829 38.6426 20.3529 38.6426 19.4129 38.6426C18.9629 38.6426 18.7529 38.8826 18.7529 39.3226C18.7729 39.8926 18.7629 40.4626 18.7629 41.1326Z" fill="#00ACE8"/>
<path d="M41.0028 32.8427C40.3228 32.7827 39.7228 32.7227 39.0828 32.6627C39.3728 31.4627 39.6528 30.2727 39.9328 29.0827C42.0128 20.5427 44.0928 11.9927 46.1728 3.45267C46.3128 2.86267 46.6328 2.53267 47.0928 2.56267C47.5428 2.59267 47.9628 2.75267 48.0828 3.25267C48.1328 3.44267 48.1028 3.66267 48.0528 3.86267C46.6528 9.66267 45.2428 15.4727 43.8328 21.2727C42.9128 25.0727 41.9828 28.8727 41.0628 32.6727C41.0328 32.7627 41.0028 32.8327 41.0028 32.8427Z" fill="#00ACE8"/>
<path d="M47.4928 39.1727C42.1028 39.1727 36.7428 39.1727 31.3928 39.1727C31.1028 37.6627 32.0228 36.5027 33.5128 36.4927C37.4328 36.4827 41.3628 36.4927 45.2828 36.4927C46.8828 36.4927 47.7528 37.5327 47.4928 39.1727Z" fill="#00ACE8"/>
<path d="M17.6428 6.5127C18.6728 8.7827 19.6628 10.8827 20.5728 13.0127C21.1028 14.2627 20.7428 15.5427 19.7228 16.4527C18.8128 17.2727 17.4528 17.4527 16.3228 16.9027C15.1628 16.3427 14.4928 15.1527 14.5928 13.8427C14.6128 13.6427 14.6428 13.4227 14.7228 13.2327C15.6728 11.0327 16.6328 8.8327 17.6428 6.5127ZM17.2528 16.2227C18.1228 16.2227 18.6228 15.9727 19.0028 15.5127C19.3228 15.1227 19.3028 14.8627 18.8328 14.6627C18.0028 14.3027 17.3328 13.7627 16.8128 13.0127C16.5128 12.5827 16.2828 12.6027 15.9528 13.0027C15.4228 13.6427 15.3528 14.3627 15.6828 15.0927C16.0328 15.8427 16.6728 16.2127 17.2528 16.2227Z" fill="#00ACE8"/>
<path d="M5.01281 12.3826C3.55281 12.3826 2.10281 12.3726 0.64281 12.3926C0.18281 12.3926 -0.0271899 12.2526 0.00281006 11.7626C0.0428101 11.1726 0.0228101 10.5826 0.00281006 9.99263C0.00281006 9.61263 0.14281 9.44263 0.52281 9.44263C3.52281 9.44263 6.52281 9.44263 9.52281 9.44263C9.86281 9.44263 10.0328 9.58263 10.0228 9.94263C10.0128 10.5826 10.0028 11.2226 10.0228 11.8626C10.0428 12.3126 9.79281 12.3826 9.43281 12.3826C7.95281 12.3826 6.48281 12.3826 5.01281 12.3826Z" fill="#00ACE8"/>
<path d="M5.01284 16.9526C6.47284 16.9526 7.92284 16.9626 9.38284 16.9426C9.85284 16.9326 10.0428 17.0926 10.0228 17.5726C9.99284 18.1626 10.0028 18.7526 10.0228 19.3426C10.0328 19.7226 9.89284 19.8826 9.51284 19.8826C6.51284 19.8826 3.51284 19.8826 0.512842 19.8826C0.132842 19.8826 -0.00715776 19.7126 0.0128422 19.3326C0.0328422 18.7226 0.0328422 18.1226 0.0128422 17.5126C-0.00715776 17.0726 0.192842 16.9326 0.602842 16.9426C2.07284 16.9526 3.54284 16.9526 5.01284 16.9526Z" fill="#00ACE8"/>
<path d="M5.01283 27.8025C3.55283 27.8025 2.10283 27.7925 0.642826 27.8125C0.192826 27.8125 -0.0271736 27.6825 0.00282641 27.1825C0.0428264 26.5925 0.0228264 26.0025 0.00282641 25.4125C0.00282641 25.0425 0.132826 24.8625 0.512826 24.8625C3.51283 24.8625 6.51283 24.8625 9.51283 24.8625C9.89283 24.8625 10.0328 25.0425 10.0228 25.4125C10.0028 26.0225 9.99283 26.6225 10.0228 27.2325C10.0428 27.6825 9.84283 27.8025 9.43283 27.8025C7.96283 27.7925 6.48283 27.8025 5.01283 27.8025Z" fill="#00ACE8"/>
<path d="M47.5528 41.5027C47.3028 41.5227 47.1028 41.5527 46.8928 41.5527C41.9528 41.5527 37.0028 41.5527 32.0628 41.5527C31.3428 41.5527 31.3428 41.5527 31.3428 40.8427C31.3428 40.0227 31.3428 40.0227 32.1528 40.0227C37.0328 40.0227 41.9028 40.0227 46.7828 40.0227C47.5528 40.0227 47.5528 40.0227 47.5528 40.7827C47.5528 41.0127 47.5528 41.2327 47.5528 41.5027Z" fill="#00ACE8"/>
<path d="M24.7629 7.79264C24.5029 7.79264 24.2729 7.79264 23.9429 7.79264C23.9829 7.33264 24.0029 6.85264 24.0829 6.38264C24.4729 4.22264 25.4929 2.45264 27.3029 1.17264C29.4929 -0.377362 32.4129 -0.307363 34.5829 1.32264C36.5329 2.78264 37.8729 5.56264 37.6929 7.80264C37.4429 7.80264 37.1929 7.80264 37.0229 7.80264C36.8029 6.87264 36.6829 5.95264 36.3529 5.10264C35.4829 2.86264 33.9529 1.29264 31.4629 0.952637C29.4329 0.672637 27.8029 1.51264 26.5129 3.03264C25.4329 4.30264 24.9029 5.80264 24.8029 7.46264C24.7929 7.56264 24.7829 7.66264 24.7629 7.79264Z" fill="#00ACE8"/>
<path d="M41.0328 35.6526C39.9628 35.6526 38.9328 35.6526 37.8128 35.6526C37.9028 35.0026 37.5628 34.3026 38.2028 33.7726C38.5528 33.4826 40.1128 33.4326 40.5628 33.6826C41.0628 33.9626 41.1828 34.4626 41.0328 35.6526Z" fill="#00ACE8"/>
<path d="M19.6028 39.5327C20.4128 39.3727 20.4328 39.3927 20.4328 40.0927C20.4328 40.4027 20.4228 40.7127 20.4328 41.0327C20.4428 41.3227 20.4628 41.5727 20.0328 41.5727C19.5628 41.5827 19.5928 41.3127 19.6028 41.0027C19.6028 40.5127 19.6028 40.0327 19.6028 39.5327Z" fill="#00ACE8"/>
<path d="M22.1028 39.5327C22.1028 40.1027 22.0928 40.6527 22.1028 41.2127C22.1128 41.5027 21.9628 41.5627 21.7128 41.5527C21.4828 41.5427 21.2428 41.5727 21.2628 41.2227C21.2728 40.8427 21.2628 40.4627 21.2628 40.0827C21.2728 39.4027 21.3028 39.3727 22.1028 39.5327Z" fill="#00ACE8"/>
</svg>
