<svg width="60" height="59" viewBox="0 0 60 59" fill="none" xmlns="http://www.w3.org/2000/svg">
<g clip-path="url(#clip0_113_999)">
<path d="M59.9999 19.1847C59.3691 20.818 58.1454 21.5017 56.4802 21.2231C53.3389 20.6914 50.9923 21.7929 49.0748 24.2997C48.0781 25.6038 46.7787 26.68 45.5928 27.8195C45.3405 28.0601 44.9368 28.1487 44.5962 28.3006C44.4953 27.9461 44.3061 27.5916 44.2934 27.2371C44.2556 25.6671 44.2304 24.0845 44.2934 22.5019C44.3313 21.5396 44.0664 21.1725 43.0571 21.2231C41.2909 21.2991 39.5247 21.2484 37.7459 21.2484C38.5155 19.1087 38.6164 19.0454 40.6854 19.0454C42.4894 19.0454 44.2808 19.0454 46.2993 19.0454C46.2993 20.6407 46.2993 22.1347 46.2993 23.6414C46.4129 23.692 46.5264 23.73 46.6399 23.7806C47.523 22.9197 48.5071 22.1474 49.2514 21.1851C50.6013 19.4506 52.2413 18.7162 54.4364 19.0328C55.4709 19.1847 56.5306 19.0581 57.6408 19.0581C57.6786 18.6276 57.7165 18.3238 57.7165 18.0199C57.7165 13.1328 57.6913 8.24561 57.7417 3.35847C57.7543 2.32026 57.3632 2.11769 56.4297 2.13035C49.9579 2.11769 43.4734 2.0164 36.989 2.15567C35.0714 2.19365 33.7215 1.54794 32.4221 0.0919301C32.9141 0.0919301 33.2926 0.0919301 33.6711 0.0919301C41.3288 0.0919301 48.9865 0.142574 56.6568 0.0539472C58.3473 0.0412862 59.4448 0.535065 59.9999 2.14301C59.9999 7.8278 59.9999 13.4999 59.9999 19.1847Z" fill="white"/>
<path d="M18.5954 29.6048C17.9142 30.0606 17.1825 30.4531 16.5643 30.9849C16.2867 31.2254 16.0344 31.8078 16.1227 32.1244C17.9268 37.9357 19.7939 43.7218 21.6484 49.5079C21.6862 49.6092 21.7746 49.6978 22.0269 50.065C23.1118 45.621 24.1337 41.4049 25.2312 36.8849C26.3162 41.3795 27.3507 45.5956 28.3725 49.8118C28.4608 49.8244 28.5365 49.8371 28.6248 49.8624C28.7889 49.4573 28.9907 49.0774 29.1295 48.6596C30.82 43.3547 32.46 38.0244 34.201 32.7321C34.529 31.7445 34.5037 31.1241 33.5071 30.6557C32.952 30.3898 32.4852 29.972 32.0437 29.4022C33.5071 29.6681 34.9831 29.9213 36.4465 30.2125C38.7552 30.6557 41.0513 31.1241 43.3473 31.5673C45.3027 31.9471 46.5517 32.96 46.9932 35.0237C48.1539 40.392 49.4154 45.7223 50.6644 51.1918C48.5828 51.9261 46.5643 52.6352 44.5458 53.3568C44.1799 53.4834 43.7636 53.5721 43.4608 53.8C39.6761 56.8006 35.1219 57.535 30.555 57.8641C26.9343 58.13 23.2632 58.1427 19.6425 57.8515C15.1513 57.497 10.7863 56.6107 6.92594 53.8506C5.3616 52.7365 3.22956 52.4199 1.34983 51.7489C-0.176667 51.2171 -0.189282 51.2171 0.163956 49.6218C1.26152 44.6841 2.37169 39.7463 3.49449 34.8211C3.83511 33.3271 4.68036 32.1623 6.19423 31.8332C10.2691 30.9469 14.3818 30.1746 18.4819 29.3643C18.5323 29.4402 18.5702 29.5162 18.5954 29.6048Z" fill="white"/>
<path d="M25.3448 0.674316C32.0058 0.712299 35.0966 5.29558 35.8788 10.7018C36.0176 11.6767 36.0428 12.6643 36.1311 13.6392C36.1564 13.8671 36.1437 14.1709 36.2699 14.3102C37.8847 16.0194 36.8628 17.5894 36.005 19.134C35.349 20.3242 34.5542 21.451 33.8855 22.6411C32.5357 25.0214 30.9461 27.2118 28.7005 28.8324C26.1774 30.6429 24.2093 30.6302 21.7241 28.7817C19.1379 26.8572 17.3843 24.2744 15.9839 21.4004C15.6812 20.78 15.1892 20.2482 14.8738 19.6152C14.3439 18.577 13.8645 17.5134 13.423 16.4373C13.3094 16.1714 13.2968 15.7156 13.4482 15.513C14.8612 13.7405 14.2935 11.5248 14.7855 9.56233C15.7821 5.53614 17.7123 2.33291 21.9764 1.19342C23.0739 0.889553 24.222 0.838909 25.3448 0.674316Z" fill="white"/>
<path d="M36.5601 4.35889C42.6787 4.35889 48.7972 4.35889 54.9158 4.37155C55.1681 4.37155 55.4331 4.58678 55.6854 4.70073C55.4331 4.84 55.1808 5.11855 54.9158 5.11855C49.0748 5.14387 43.2211 5.14387 37.3801 5.11855C37.0521 5.11855 36.7241 4.86533 36.4087 4.73872C36.4592 4.61211 36.5096 4.4855 36.5601 4.35889Z" fill="white"/>
<path d="M55.8746 8.06836C55.2186 8.66343 40.3195 9.04326 38.4146 8.65077C38.1875 8.60012 37.9983 8.35956 37.6072 8.06836C43.8393 8.06836 49.7687 8.06836 55.8746 8.06836Z" fill="white"/>
<path d="M25.2565 35.9732C24.2977 34.5805 23.465 33.3777 22.6072 32.1369C24.3986 30.8582 26.1017 30.9595 27.9184 32.0989C27.0479 33.365 26.2153 34.5678 25.2565 35.9732Z" fill="white"/>
<path d="M43.8014 11.9171C42.0226 11.9171 40.2438 11.9171 38.4524 11.9171C38.4524 11.8031 38.4524 11.7018 38.4524 11.5879C40.2438 11.5879 42.0226 11.5879 43.814 11.5879C43.814 11.6892 43.814 11.8031 43.8014 11.9171Z" fill="white"/>
</g>
<defs>
<clipPath id="clip0_113_999">
<rect width="60" height="58" fill="white" transform="translate(0 0.0537109)"/>
</clipPath>
</defs>
</svg>
