<svg width="53" height="42" viewBox="0 0 53 42" fill="none" xmlns="http://www.w3.org/2000/svg">
<path d="M8.09 14.0564C7.16 13.7164 6.25 13.3764 5.35 13.0464C3.8 12.4764 2.26 11.9064 0.71 11.3364C0.2 11.1464 0 10.8864 0 10.4264C0 9.95636 0.21 9.68635 0.73 9.49636C9.1 6.38636 17.47 3.27635 25.84 0.156355C26.19 0.026355 26.51 0.016355 26.86 0.146355C35.25 3.26635 43.64 6.38636 52.03 9.49636C52.51 9.67636 52.73 9.98636 52.73 10.4264C52.72 10.8664 52.5 11.1564 52.01 11.3364C43.61 14.4564 35.21 17.5764 26.8 20.7064C26.49 20.8164 26.21 20.8164 25.9 20.6964C21.12 18.9064 16.33 17.1264 11.55 15.3264C11.25 15.2164 11.1 15.2864 10.92 15.5064C10.17 16.4464 9.76 17.5464 9.45 18.6864C9.09 20.0264 8.89 21.3964 8.83 22.7864C8.82 22.9264 8.9 23.1064 9.01 23.1964C10.62 24.6264 10.68 27.2364 9.11 28.7164C8.97 28.8464 8.92 28.9664 8.95 29.1664C9.17 30.9964 9.37 32.8364 9.58 34.6664C9.79 36.4964 10 38.3364 10.21 40.1664C10.23 40.3764 10.26 40.5864 10.24 40.7864C10.21 41.2664 9.9 41.5464 9.43 41.5564C8.07 41.5564 6.7 41.5564 5.34 41.5564C4.68 41.5564 4.34 41.1964 4.41 40.5464C4.53 39.3764 4.67 38.2064 4.8 37.0364C5.09 34.4364 5.39 31.8364 5.69 29.2364C5.72 28.9864 5.66 28.8164 5.48 28.6364C3.95 27.1364 4.07 24.4964 5.7 23.1064C5.81 23.0164 5.88 22.8364 5.89 22.6964C6.05 20.2564 6.43 17.8664 7.36 15.5964C7.57 15.0964 7.83 14.6064 8.09 14.0564Z" fill="#00ACE8"/>
<path d="M12.15 19.1863C13.82 19.8063 15.43 20.4063 17.05 21.0163C19.71 22.0063 22.36 22.9863 25.01 23.9863C25.94 24.3363 26.84 24.3263 27.77 23.9763C31.89 22.4263 36.02 20.8963 40.15 19.3563C40.28 19.3063 40.42 19.2663 40.59 19.1963C40.6 19.3363 40.62 19.4463 40.62 19.5663C40.75 22.2963 40.89 25.0363 41.01 27.7663C41.06 28.8863 40.55 29.7863 39.8 30.5563C38.65 31.7563 37.2 32.5063 35.67 33.0863C33.36 33.9663 30.96 34.4063 28.5 34.5663C26.55 34.6963 24.61 34.6663 22.67 34.4263C19.87 34.0663 17.16 33.4163 14.7 31.9563C13.78 31.4063 12.95 30.7463 12.34 29.8363C11.9 29.1763 11.68 28.4563 11.72 27.6563C11.85 25.0163 11.97 22.3863 12.09 19.7463C12.11 19.5763 12.13 19.4063 12.15 19.1863Z" fill="#00ACE8"/>
</svg>
