<svg width="35" height="46" viewBox="0 0 35 46" fill="none" xmlns="http://www.w3.org/2000/svg">
<path d="M15.77 4.64732C14.8 3.35732 15.19 1.64732 16.14 0.787323C17.16 -0.132677 18.72 -0.192677 19.79 0.637323C21.02 1.58732 21.2 3.00732 20.4 4.58732C20.62 5.08732 20.77 5.48732 20.97 5.86732C21.04 5.99732 21.19 6.14732 21.32 6.17732C27.68 7.79732 31.53 11.8473 33.06 18.2273C33.07 18.2873 33.34 18.2773 33.48 18.3173C34.03 18.4873 34.35 18.9473 34.29 19.4673C34.22 19.9973 33.82 20.3673 33.24 20.3973C32.91 20.4173 32.58 20.3973 32.23 20.3973C32.34 20.7273 32.47 20.9773 32.51 21.2373C32.58 21.7773 32.17 22.2673 31.6 22.3673C31.41 22.3973 31.21 22.3873 31.01 22.3873C22.39 22.3873 13.78 22.3873 5.16001 22.3873C3.77001 22.3873 3.34001 21.7573 3.91001 20.3973C3.53001 20.3973 3.19001 20.4173 2.84001 20.3973C2.27001 20.3573 1.94001 20.0473 1.86001 19.4773C1.79001 18.9473 2.05001 18.4673 2.59001 18.3573C3.04001 18.2673 3.13001 18.0373 3.24001 17.6273C4.83001 11.5973 8.65001 7.77732 14.7 6.20732C15.02 6.12732 15.11 6.01732 15.18 5.68732C15.25 5.33732 15.54 5.03732 15.77 4.64732ZM5.64001 18.2373C11.16 18.2373 16.57 18.2373 21.98 18.2373C21.98 18.2073 21.98 18.1773 21.98 18.1473C18.24 17.8773 14.51 17.6073 10.68 17.3273C10.85 16.5273 10.96 15.8273 11.15 15.1573C11.87 12.6273 13 10.3473 15.21 8.75732C15.38 8.62732 15.47 8.37732 15.59 8.18732C15.36 8.15732 15.1 8.05732 14.89 8.11732C9.86001 9.65732 6.94001 13.1373 5.64001 18.2373ZM30.39 18.2373C30.4 18.1473 30.41 18.0873 30.4 18.0273C29.5 14.1173 27.35 11.1373 23.84 9.15732C23.68 9.06732 23.42 9.12732 23.21 9.11732C23.31 9.31732 23.35 9.58732 23.51 9.71732C25.24 11.1173 26.6 12.8073 27.45 14.8573C27.9 15.9373 28.2 17.0773 28.59 18.2273C29.14 18.2373 29.76 18.2373 30.39 18.2373ZM18.07 4.32732C18.83 4.32732 19.51 3.64732 19.5 2.89732C19.49 2.16732 18.83 1.48732 18.11 1.45732C17.32 1.42732 16.64 2.10732 16.64 2.91732C16.64 3.70732 17.26 4.32732 18.07 4.32732Z" fill="#00ACE8"/>
<path d="M18.7 28.8172C19.97 27.7972 21.19 26.6972 22.52 25.7672C23.51 25.0772 24.63 24.5572 25.72 24.0072C26.92 23.3972 28.18 23.5872 29.4 23.9372C29.69 24.0172 30.05 24.3572 30.09 24.6172C30.13 24.8872 29.9 25.3072 29.65 25.4972C28.83 26.1072 27.96 26.6472 27.1 27.2072C24.84 28.6672 22.63 30.1872 20.98 32.3572C20.37 33.1572 19.7 33.8872 18.92 34.5272C17.09 36.0072 15.68 37.8472 14.54 39.8972C14.44 40.0672 14.15 40.2772 13.99 40.2472C12.17 39.9272 10.34 39.6472 8.56 39.1672C7.73 38.9272 6.99999 38.2972 6.22999 37.8272C6.08999 37.7472 5.94999 37.5072 5.96999 37.3572C6.11999 36.3572 6.23999 35.3372 6.49999 34.3572C6.88999 32.9372 7.39 31.5472 7.84 30.1472C8.29999 28.7172 8.30999 27.2872 7.89999 25.8472C7.56999 24.6772 7.77999 23.9572 8.48999 23.7072C9.42999 23.3772 10.77 23.9972 11.07 25.0272C11.3 25.8072 11.32 26.6472 11.43 27.4672C11.49 27.9372 11.5 28.4172 11.61 28.8672C11.86 29.9272 13.06 30.5572 14.07 30.1672C14.23 30.1072 14.35 29.8672 14.43 29.6772C15.15 28.0072 15.91 26.3672 17.23 25.0572C17.84 24.4572 18.43 23.7672 19.36 23.6572C19.72 23.6172 20.12 23.6272 20.46 23.7172C21.23 23.9272 21.41 24.6072 20.92 25.2372C20.52 25.7472 20.05 26.2072 19.7 26.7572C19.29 27.3872 18.97 28.0872 18.61 28.7572C18.64 28.7772 18.67 28.7972 18.7 28.8172Z" fill="#00ACE8"/>
<path d="M4.42 38.5371C6.39 40.7771 9.02 41.2771 11.69 41.6871C12.45 41.7971 13.2 41.9271 13.95 42.0771C15.1 42.3071 15.53 43.1871 15.03 44.2371C14.29 45.7771 14.29 45.7771 12.62 45.7771C8.68 45.7771 4.74 45.7771 0.8 45.7771C0.58 45.7771 0.37 45.7771 0 45.7771C1.49 43.3471 2.92 40.9971 4.42 38.5371Z" fill="#00ACE8"/>
</svg>
