<svg width="46" height="42" viewBox="0 0 46 42" fill="none" xmlns="http://www.w3.org/2000/svg">
<path d="M39.6471 14.1672C40.5671 13.6072 41.3071 12.8772 41.8971 11.9372C41.9571 12.0172 42.0171 12.0672 42.0571 12.1372C43.7271 14.5372 44.8071 17.1772 45.2171 20.0772C45.9871 25.6072 44.6071 30.5672 41.0471 34.8572C38.0871 38.4272 34.2671 40.5972 29.6771 41.3272C20.6471 42.7772 12.0271 37.6472 8.97709 29.0372C8.43709 27.5272 8.11709 25.9572 7.98709 24.3572C7.97709 24.2772 7.90709 24.1472 7.84709 24.1372C6.04709 23.6272 4.91709 22.3572 4.10709 20.7572C3.63709 19.8172 3.29709 18.8272 3.14709 17.7772C3.13709 17.6872 3.11709 17.5772 3.14709 17.4972C3.26709 17.1172 3.14709 16.7772 3.02709 16.4272C2.09709 13.6572 1.13709 10.8972 0.297089 8.09717C-0.392911 5.77717 0.117089 3.66717 1.84709 1.92717C2.18709 1.58717 2.60709 1.27717 3.04709 1.08717C3.84709 0.737169 4.68709 0.437169 5.52709 0.207169C6.76709 -0.122831 7.74709 0.757169 7.64709 2.02717C7.58709 2.79717 6.89709 3.45717 6.03709 3.59717C5.56709 3.66717 5.12709 3.59717 4.71709 3.37717C4.38709 3.18717 4.11709 3.25717 3.83709 3.48717C2.59709 4.48717 2.14709 5.82717 2.65709 7.33717C3.60709 10.1672 4.60709 12.9872 5.60709 15.7972C5.69709 16.0672 5.93709 16.2772 6.07709 16.5372C6.21709 16.7872 6.38709 17.0472 6.44709 17.3172C6.66709 18.2372 6.94709 19.1272 7.48709 19.9072C7.83709 20.4072 8.25709 20.8172 8.89709 20.9272C9.76709 21.0772 10.4271 20.7172 10.9571 20.0572C11.4871 19.3972 11.7271 18.6172 11.9071 17.8072C11.9471 17.6172 11.9471 17.3972 12.0271 17.2272C12.1671 16.9372 12.2971 16.5972 12.5371 16.4072C12.8271 16.1772 12.9571 15.8972 13.0771 15.5772C13.9671 13.2372 14.8671 10.8972 15.7471 8.54717C16.0571 7.72717 16.2571 6.87717 16.1671 5.98717C16.0671 5.02717 15.6271 4.21717 14.9771 3.52717C14.7171 3.24717 14.3971 3.17717 14.0171 3.33717C13.6171 3.50717 13.2071 3.66717 12.7571 3.59717C12.0771 3.48717 11.5571 3.13717 11.2771 2.49717C11.0071 1.86717 11.1971 1.30717 11.6171 0.807169C12.2371 0.0571693 12.9471 -0.152831 13.8171 0.267169C15.0171 0.847169 16.2071 1.46717 17.2171 2.35717C18.1571 3.18717 18.5671 4.27717 18.6671 5.49717C18.7571 6.64717 18.5771 7.75717 18.1971 8.84717C17.2671 11.5172 16.3371 14.1872 15.4171 16.8572C15.3471 17.0672 15.3271 17.2972 15.3271 17.5172C15.3071 18.3472 15.0771 19.1272 14.8071 19.8872C14.2471 21.4672 13.3371 22.7872 11.8471 23.6372C11.7371 23.7072 11.6171 23.7772 11.4971 23.8172C11.2271 23.8972 11.1471 24.0472 11.1671 24.3372C11.2471 26.0672 11.6971 27.7072 12.4371 29.2472C14.7971 34.1972 18.6671 37.2672 24.0671 38.2272C32.1971 39.6672 40.0671 34.4172 41.9171 26.4072C42.8971 22.1772 42.1671 18.2172 39.8871 14.5372C39.8271 14.4372 39.7671 14.3472 39.7071 14.2472C39.6771 14.2372 39.6771 14.2172 39.6471 14.1672Z" fill="#00ACE8"/>
<path d="M17.9871 18.6371C18.0071 17.9371 18.3271 17.4471 18.9471 17.2271C21.3171 16.3671 23.6971 15.5171 26.0671 14.6571C26.9971 14.3171 27.9371 14.3171 28.8671 14.6571C31.2371 15.5171 33.6171 16.3671 35.9871 17.2271C36.6171 17.4571 36.9571 17.9871 36.8971 18.6971C36.7471 20.4971 36.3971 22.2571 35.8171 23.9571C34.3371 28.2671 31.6571 31.6371 27.8571 34.1271C27.5671 34.3171 27.3671 34.3071 27.0771 34.1271C22.4471 31.0871 19.5771 26.8471 18.4471 21.4371C18.2571 20.5071 18.1371 19.5671 17.9871 18.6371ZM26.0471 18.9971C26.0471 20.2471 26.0471 21.4571 26.0471 22.7071C24.8171 22.7071 23.6271 22.7071 22.4071 22.7071C22.4071 23.6271 22.4071 24.5171 22.4071 25.4471C23.6471 25.4471 24.8571 25.4471 26.1171 25.4471C26.1171 26.6871 26.1171 27.8971 26.1171 29.0871C27.0471 29.0871 27.9371 29.0871 28.8671 29.0871C28.8671 27.8471 28.8671 26.6271 28.8671 25.3871C30.1071 25.3871 31.3171 25.3871 32.5371 25.3871C32.5371 24.4771 32.5371 23.5971 32.5371 22.6771C31.3071 22.6771 30.0871 22.6771 28.8371 22.6771C28.8371 21.4271 28.8371 20.2171 28.8371 18.9971C27.8871 18.9971 26.9971 18.9971 26.0471 18.9971Z" fill="#00ACE8"/>
<path d="M36.2371 3.60718C38.9271 3.60718 41.1171 5.79718 41.1171 8.48718C41.1171 11.1772 38.9271 13.3672 36.2371 13.3572C33.5471 13.3572 31.3571 11.1672 31.3571 8.47718C31.3471 5.80718 33.5471 3.60718 36.2371 3.60718Z" fill="#00ACE8"/>
</svg>
