<svg width="38" height="42" viewBox="0 0 38 42" fill="none" xmlns="http://www.w3.org/2000/svg">
<path d="M21.5888 13.5139C21.1788 15.9839 20.5288 18.2639 20.4688 20.5639C20.3088 26.3939 20.4188 32.2339 20.4088 38.0739C20.4088 38.4939 20.4088 38.9139 20.3388 39.3239C20.1288 40.6939 19.0388 41.5839 17.6388 41.5539C16.3188 41.5339 15.2388 40.6039 15.0588 39.2839C14.9888 38.7739 15.0088 38.2639 15.0088 37.7439C15.0088 32.1639 15.0088 26.5839 15.0088 21.0039C15.0088 20.6239 15.0088 20.2439 15.0088 19.7839C14.5688 19.7839 14.2088 19.7839 13.7288 19.7839C13.7288 20.1539 13.7288 20.5339 13.7288 20.9039C13.7288 26.7139 13.7488 32.5139 13.7088 38.3239C13.7088 38.9939 13.5288 39.7339 13.2188 40.3339C12.6788 41.3639 11.4888 41.7639 10.3088 41.4839C9.24882 41.2339 8.40882 40.2739 8.33882 39.1539C8.28882 38.2239 8.30882 37.2939 8.30882 36.3639C8.30882 31.2039 8.30882 26.0339 8.30882 20.8739C8.30882 18.5639 8.29882 18.5939 6.17882 17.8439C5.06882 17.4539 3.97882 16.9739 2.91882 16.4439C2.29882 16.1339 1.70882 15.7039 1.19882 15.2239C-0.471183 13.6539 -0.401183 11.4539 1.43882 10.0839C3.95882 8.21391 6.86882 7.58391 9.97882 7.76391C10.2188 7.77391 10.4788 8.00391 10.6688 8.18391C13.1488 10.6439 16.4288 10.6539 18.8688 8.19391C19.6588 7.40391 21.4488 7.51391 22.1988 8.52391C25.4188 12.8439 29.8288 14.2039 34.9788 13.7839C35.1988 13.7639 35.4288 13.7539 35.6488 13.7539C36.7688 13.7639 37.5888 14.4839 37.6688 15.5239C37.7588 16.6439 37.0788 17.5139 35.9188 17.6639C31.0288 18.3139 26.5488 17.3439 22.5988 14.2839C22.3388 14.0739 22.0588 13.8739 21.5888 13.5139ZM4.69882 12.6439C4.68882 12.7439 4.67882 12.8439 4.67882 12.9539C5.74882 13.3939 6.81882 13.8339 8.04882 14.3439C7.99882 13.3339 7.96882 12.5939 7.91882 11.6739C6.72882 12.0239 5.71882 12.3339 4.69882 12.6439ZM15.8888 15.9939C15.8888 15.8439 15.8788 15.6939 15.8788 15.5439C15.4988 15.3139 15.0988 14.8739 14.7488 14.9039C14.4188 14.9339 13.8388 15.5139 13.8788 15.7539C13.9488 16.1339 14.4188 16.6539 14.7888 16.7039C15.1088 16.7539 15.5188 16.2539 15.8888 15.9939ZM15.8788 12.9139C15.8788 12.7639 15.8788 12.6139 15.8788 12.4639C15.5088 12.2139 15.0988 11.7239 14.7788 11.7739C14.4188 11.8339 13.9488 12.3439 13.8788 12.7339C13.8288 12.9639 14.4188 13.5439 14.7588 13.5739C15.1088 13.5939 15.4988 13.1539 15.8788 12.9139Z" fill="#00ACE8"/>
<path d="M14.7889 8.98386C12.3189 8.98386 10.3189 7.00386 10.2989 4.54386C10.2789 2.04386 12.2989 0.0338589 14.8289 0.0538589C17.2989 0.0738589 19.2989 2.08386 19.2789 4.54386C19.2589 6.99386 17.2489 8.98386 14.7889 8.98386Z" fill="#00ACE8"/>
</svg>
