<svg width="44" height="42" viewBox="0 0 44 42" fill="none" xmlns="http://www.w3.org/2000/svg">
<path d="M0 41.5713C0 41.0013 0 40.5013 0 39.9013C0.6 39.9013 1.2 39.9013 1.84 39.9013C1.84 32.6913 1.84 25.5613 1.84 18.2813C5.57 20.3813 9.2 22.4213 12.94 24.5213C12.94 22.4113 12.94 20.4113 12.94 18.2713C16.63 20.3613 20.22 22.3913 23.93 24.5013C23.93 22.3913 23.93 20.3913 23.93 18.2713C27.66 20.3913 31.26 22.4313 34.94 24.5213C34.94 19.5013 34.94 14.5813 34.94 9.62134C37.22 9.62134 39.46 9.62134 41.77 9.62134C41.77 19.7013 41.77 29.7613 41.77 39.9113C42.42 39.9113 43 39.9113 43.6 39.9113C43.6 40.5013 43.6 41.0213 43.6 41.5713C29.06 41.5713 14.56 41.5713 0 41.5713ZM21.43 28.7513C19.6 28.7513 17.82 28.7513 16.04 28.7513C16.04 29.5313 16.04 30.2613 16.04 31.0213C17.85 31.0213 19.63 31.0213 21.43 31.0213C21.43 30.2513 21.43 29.5313 21.43 28.7513ZM21.44 34.5713C19.61 34.5713 17.84 34.5713 16.05 34.5713C16.05 35.3613 16.05 36.1113 16.05 36.8413C17.87 36.8413 19.64 36.8413 21.44 36.8413C21.44 36.0713 21.44 35.3513 21.44 34.5713ZM10.66 34.5713C8.83 34.5713 7.08 34.5713 5.3 34.5713C5.3 35.3513 5.3 36.1013 5.3 36.8513C7.11 36.8513 8.88 36.8513 10.66 36.8513C10.66 36.0713 10.66 35.3313 10.66 34.5713ZM32.18 36.8613C32.18 36.1113 32.18 35.3413 32.18 34.5813C30.38 34.5813 28.61 34.5813 26.83 34.5813C26.83 35.3613 26.83 36.1013 26.83 36.8613C28.61 36.8613 30.37 36.8613 32.18 36.8613ZM5.3 31.0313C7.11 31.0313 8.87 31.0313 10.67 31.0313C10.67 30.2513 10.67 29.5113 10.67 28.7413C8.87 28.7413 7.09 28.7413 5.3 28.7413C5.3 29.5213 5.3 30.2513 5.3 31.0313ZM32.2 28.7513C30.38 28.7513 28.63 28.7513 26.84 28.7513C26.84 29.5413 26.84 30.2813 26.84 31.0313C28.66 31.0313 30.43 31.0313 32.2 31.0313C32.2 30.2513 32.2 29.5313 32.2 28.7513Z" fill="#00ACE8"/>
<path d="M40.2399 6.13137C40.2299 7.42137 39.2099 8.12137 38.0499 7.77137C37.8099 7.70137 37.5199 7.62137 37.3699 7.44137C36.8899 6.89137 36.2899 6.67137 35.5799 6.66137C35.4499 6.66137 35.3099 6.60137 35.1899 6.55137C34.2099 6.18137 33.8899 6.17137 32.7799 6.33137C31.4199 6.52137 30.2599 6.10137 29.3599 5.06137C28.5899 4.16137 28.4199 3.12137 28.8699 2.04137C29.3799 0.801369 30.4099 0.191369 31.7099 0.0713686C33.1199 -0.0486314 34.2799 0.441369 35.1499 1.59137C35.2499 1.73137 35.4999 1.81137 35.6899 1.82137C37.2199 1.85137 38.0799 2.47137 38.6099 3.89137C38.6699 4.06137 38.8699 4.21137 39.0299 4.32137C39.7499 4.78137 40.2099 5.40137 40.2399 6.13137Z" fill="#00ACE8"/>
</svg>
