<svg width="60" height="59" viewBox="0 0 60 59" fill="none" xmlns="http://www.w3.org/2000/svg">
<g clip-path="url(#clip0_113_1024)">
<path d="M10.8843 54.3182C12.0649 49.9776 11.3513 46.0233 10.9232 42.0562C10.8065 41.0386 10.5081 40.2014 9.96323 39.3127C8.49729 36.9556 8.30269 34.4568 9.45729 31.8807C9.67783 31.3913 9.74269 30.8117 9.74269 30.2707C9.72972 25.3762 10.4692 20.6491 12.6486 16.2054C16.3589 8.65756 23.2476 5.70797 31.3427 6.12014C42.1622 6.66111 47.6238 13.6422 49.7254 22.6327C50.3092 25.1443 50.4389 27.759 50.7632 30.3351C50.9059 31.3913 51.0097 32.4604 51.1654 33.5165C51.4767 35.4743 51.2173 37.3291 50.2573 39.0808C49.8422 39.8279 49.5178 40.6265 49.1416 41.3864C49.0767 41.5281 48.973 41.6827 48.8432 41.7471C46.9492 42.7388 45.0551 43.7306 42.8627 44.8641C43.4335 42.8805 43.9005 41.2834 44.3546 39.6991C47.7794 39.1324 49.5308 36.5177 48.3632 33.5809C48.1297 32.9885 47.52 32.2543 46.9622 32.1384C42.4995 31.1594 39.5157 28.5576 37.9719 24.5132C36.1167 25.7368 34.3654 27.1408 32.3935 28.1326C27.6584 30.5154 22.4951 31.3527 17.267 31.8292C16.0216 31.9451 14.7762 32.0739 13.5308 32.0482C12.493 32.0224 11.987 32.5763 11.6367 33.4006C10.3913 36.3502 12.2076 39.2354 15.6065 39.6733C16.0216 41.0644 16.307 42.5199 16.9038 43.8465C17.8378 45.9074 18.7459 48.0455 20.0562 49.8745C25.4011 57.3193 34.6119 57.2678 39.9567 49.8359C40.5016 49.076 41.1503 48.6509 42.0065 48.3418C44.1859 47.569 46.3265 46.6673 48.3892 45.8688C48.5059 48.5736 48.6357 51.3042 48.7654 54.2538C46.7805 53.9447 44.653 53.6613 42.5384 53.2363C41.5913 53.0431 40.9557 53.1461 40.2162 53.8674C34.5081 59.4575 25.3622 59.4317 19.68 53.8159C18.9665 53.1075 18.3308 53.0688 17.4616 53.2363C15.3859 53.6356 13.2454 53.9447 10.8843 54.3182Z" fill="white"/>
<path d="M8.97731 42.1721C7.53731 42.1721 6.1492 42.3653 4.83893 42.1335C1.71245 41.5668 -0.454039 38.1406 0.0908259 34.9205C0.505961 32.4346 1.58272 30.4768 4.20326 29.6138C4.52758 29.5108 4.83893 28.7637 4.82596 28.3129C4.78704 23.8435 5.6692 19.5543 7.56326 15.5099C11.0141 8.16814 16.3849 2.80993 24.4541 0.826363C33.8984 -1.50497 41.8119 1.57342 48.1038 8.69623C52.9427 14.1704 55.187 20.7136 55.187 28.0038C55.187 28.9956 55.3427 29.5623 56.4454 29.923C59.1308 30.7988 60.2335 33.7871 59.9741 36.2858C59.4681 41.1417 55.9135 42.8548 52.6314 42.1464C52.333 42.082 51.9179 42.2365 51.6454 42.4297C47.0141 45.843 41.773 47.7622 36.1427 48.7668C35.7924 48.8312 35.3903 49.2563 35.2346 49.6041C34.586 51.1239 33.587 51.8452 31.8876 51.871C30.5514 51.8839 29.2152 51.9096 27.8919 51.8581C25.9849 51.7937 24.7395 50.4799 24.7524 48.6123C24.7654 46.8606 26.0757 45.5725 27.9308 45.5339C29.306 45.5081 30.6811 45.4309 32.0433 45.5597C32.8087 45.6241 33.7168 45.8817 34.2227 46.384C34.9103 47.0795 35.5719 47.1053 36.3633 46.9507C41.8379 45.9332 46.8973 43.9754 51.2692 40.4848C51.6843 40.1499 52.0606 39.5188 52.0865 38.9907C52.307 35.3585 52.6314 31.7133 52.5535 28.0682C52.3849 20.3529 49.7643 13.5907 43.9525 8.24542C36.1168 1.03245 24.2854 0.903645 16.346 8.00069C11.0011 12.7793 8.22488 18.8201 7.60218 25.9043C7.17407 30.9663 7.65407 35.9123 8.82164 40.8068C8.89948 41.1417 8.89948 41.5024 8.97731 42.1721Z" fill="white"/>
</g>
<defs>
<clipPath id="clip0_113_1024">
<rect width="60" height="58" fill="white" transform="translate(0 0.0537109)"/>
</clipPath>
</defs>
</svg>
