<svg width="67" height="59" viewBox="0 0 67 59" fill="none" xmlns="http://www.w3.org/2000/svg">
<g clip-path="url(#clip0_113_1014)">
<path d="M15.5981 58.0536C9.05832 56.65 3.83513 53.9563 0.37208 48.4838C-0.286185 47.4347 0.0143274 46.584 0.586732 45.6767C3.23411 41.5227 5.25183 37.0993 6.3394 32.2931C6.43957 31.8253 6.6256 31.3716 6.78302 30.9179C9.70228 22.4965 16.3136 19.3633 24.5562 20.143C30.9099 20.7385 35.3031 24.1553 37.6356 30.0673C37.9362 30.8187 38.3655 31.0172 39.1239 31.0313C43.0306 31.088 43.3883 31.4141 44.1181 35.2279C44.5331 37.4112 44.204 39.5378 43.2452 41.5085C42.9447 42.1323 42.2864 42.586 41.6282 43.2807C42.0575 44.0179 42.544 44.982 43.145 45.8751C43.8033 46.8534 43.7318 47.6899 43.1021 48.6681C39.8966 53.6302 35.1886 56.3239 29.5504 57.6566C29.2499 57.7275 28.9494 57.7842 28.4485 57.8835C29.5504 56.1822 30.5521 54.6368 31.6969 52.8788C29.9511 53.0773 28.5058 53.2332 27.0605 53.3892C26.9317 53.4034 26.7599 53.4317 26.6884 53.5168C25.3003 55.3173 23.3112 54.7361 21.5081 54.7361C19.9197 54.7361 18.8894 53.6586 18.8894 52.1841C18.8894 50.738 19.934 49.5896 21.4938 49.5755C23.211 49.5613 25.0714 49.0367 26.531 50.5537C26.6884 50.7238 27.1177 50.6955 27.4182 50.6671C28.5201 50.5253 29.5934 50.256 30.6952 50.1851C32.5555 50.0717 33.2997 49.0651 33.6288 47.3212C34.4874 42.7277 34.3872 38.2335 32.5985 33.8527C32.1835 32.8319 31.5682 32.4207 30.5521 33.0445C26.6455 35.4972 22.1521 36.2486 17.7732 37.3261C16.0989 37.7373 14.396 38.0492 12.7074 38.4178C10.289 38.9565 9.57349 39.8072 9.64504 42.2457C9.80245 47.7607 11.3336 52.7937 14.8969 57.132C15.0686 57.3305 15.226 57.5574 15.5981 58.0536Z" fill="white"/>
<path d="M42.0289 27.232C42.0289 26.3813 42.0289 25.9135 42.0289 25.4598C42.0289 18.8815 42.0861 12.3173 42.0003 5.73895C41.9573 2.27965 44.6047 -0.0596355 47.7386 0.0679617C52.3608 0.252269 56.9973 0.110494 61.6338 0.124672C64.8678 0.138849 67.0001 2.19458 66.9858 5.39869C66.9714 8.4752 66.9142 11.5659 66.6995 14.6424C66.4133 18.6688 62.2634 22.3975 58.1135 22.4684C54.8221 22.5251 51.5165 22.44 48.2252 22.5109C47.5526 22.5251 46.7799 22.8795 46.2504 23.3048C45.1914 24.1696 44.2756 25.2046 43.2882 26.1545C43.002 26.438 42.6585 26.6932 42.0289 27.232ZM52.5611 14.2171C51.7168 14.2171 50.9155 14.2454 50.1284 14.2029C49.2698 14.1604 49.0122 14.5857 49.1267 15.3371C49.3557 16.8824 50.1141 18.0592 51.6167 18.6688C52.7901 19.1508 54.1925 19.406 53.6344 21.2207C54.4787 21.2207 55.1227 21.2207 55.7666 21.2207C56.1387 20.4552 55.552 19.406 56.9257 19.0799C58.6429 18.683 59.7591 17.5062 59.9595 15.649C60.1884 13.5366 59.4729 11.9345 57.4838 10.9846C56.4392 10.4884 55.3373 10.0914 54.3928 9.43926C53.8777 9.08483 53.477 8.31924 53.3911 7.69544C53.3482 7.41189 54.1496 6.81643 54.6504 6.70301C55.5806 6.49035 56.0671 7.05745 56.3533 7.96481C56.4678 8.31925 56.983 8.67368 57.398 8.80128C57.8416 8.94305 58.3711 8.80128 58.8576 8.84381C59.9022 8.95723 60.0883 8.37595 59.9452 7.55366C59.659 5.86654 58.7717 4.59057 57.0975 4.03765C56.3676 3.79663 56.0528 3.4422 56.1244 2.71915C56.1959 1.82597 55.8095 1.48571 54.8794 1.49989C54.0065 1.51406 53.7489 1.84014 53.663 2.66244C53.6201 3.10194 53.2194 3.72575 52.833 3.8817C50.8869 4.61893 49.7277 5.92325 49.6562 8.00734C49.5703 10.134 50.8439 11.4099 52.6613 12.2606C53.663 12.7284 54.7506 13.0971 55.6235 13.735C56.0528 14.0611 56.2675 14.9401 56.2102 15.5356C56.1816 15.8475 55.4089 16.2586 54.9223 16.3579C53.3196 16.6698 52.8187 15.5923 52.5611 14.2171Z" fill="white"/>
</g>
<defs>
<clipPath id="clip0_113_1014">
<rect width="67" height="58" fill="white" transform="translate(0 0.0537109)"/>
</clipPath>
</defs>
</svg>
